<svg xmlns="http://www.w3.org/2000/svg" viewBox="0 0 1000 1000" width="1000" height="1000">
  <path fill="#F6E7B8" fill-rule="evenodd" d="M 666.4 405.4 C 688.2 405.4 727.7 405.8 741 406 C 743 406.1 744.3 406.8 746 406.9 C 747.7 406.9 749.1 406.1 750.9 406.1 C 752.8 406.1 754.6 407 757 407 C 765 407 789.3 405.8 799 406 C 805.5 406.1 811.2 407.8 815 408 C 817.8 408.1 819.1 407.1 821.9 407.3 C 827 407.7 837.3 408.5 845.9 410.3 C 854.4 412 864.9 414.5 873.3 417.7 C 881.8 420.9 890.2 425.8 896.6 429.4 C 902.8 433.1 906.1 435.6 911.2 439.8 C 916.3 444 923.2 450.5 927.2 454.8 C 931 458.7 932.6 460.9 935.6 465.4 C 938.6 469.9 943.2 477.7 945.3 481.7 C 946.9 484.6 947.7 486.5 948.6 489.4 C 949.5 492.3 950.4 495.4 950.8 499.2 C 951.2 503 951.5 508 950.9 511.9 C 950.4 515.8 948.7 519.8 947.6 522.6 C 946.7 525.1 946.2 526.4 944.6 528.6 C 942.5 531.6 939.3 536.5 934.7 540.7 C 930.1 545.1 922 551 916.6 554.6 C 911.3 558.2 908.4 559.9 902.5 562.5 C 895.7 565.6 884.1 570.1 875.8 572.8 C 867.5 575.5 861.3 576.9 852.7 578.5 C 844 580.2 832.8 582 823.8 582.8 C 814.9 583.5 807.8 582.7 799 583 C 790.2 583.4 777 584.8 771 585 C 767.7 585.1 766.1 584.3 762.9 584.3 C 748.9 584.3 700.8 585 687 585 C 684.2 585 682.5 584 680 584 C 677.5 584 674.8 585 672 585 C 669.2 585 666.6 584 663 584 C 659 584 654 585 648 585 C 642 584.9 631.1 584.3 627.1 583.9 C 625.8 583.8 623.7 584.2 624 583 C 624.4 581.4 628.5 577 629.5 574.5 C 630.5 572.1 630.4 569.8 630 568 C 629.6 566.2 628.5 565 627 564 C 625.5 563 623.4 562.6 620.8 562.2 C 617 561.5 608 560.4 603.9 560.1 C 600.8 559.8 598.5 560.6 596.2 560.4 C 593.9 560.2 592.3 559.1 590 559 C 587.6 558.9 585.3 559.9 582.1 559.7 C 575.6 559.4 557.5 557.3 551 557 C 547.8 556.9 546.2 558.1 543 558 C 538.8 557.8 531.3 556.2 526 556 C 520.6 555.8 515.2 556.8 511 556.6 C 506.9 556.5 505 555.1 501 555 C 496.3 554.9 489.3 555.9 483.1 555.7 C 476.9 555.6 468.1 554.2 463.9 554.1 C 461.5 554 460.4 554.9 458 555 C 448.5 555.2 417.3 554.7 407.3 555.6 C 403 556 401.2 558.2 397.8 560.8 C 393.6 564.1 386.6 572.6 382.2 575.2 C 378.4 577.4 375.6 576.8 371.2 576.4 C 361.3 575.6 334.1 571.5 322.9 570.3 C 315.4 569.4 307.9 569.4 304.1 568.9 C 302.2 568.7 301.5 567.8 299.7 567.5 C 291 566.1 270.9 564.1 252 560.6 C 232.6 557 201.2 550.3 183.2 545.8 C 167.4 541.9 154.2 537.2 144.2 533.8 C 135.7 530.9 130.5 528.7 123.4 525.6 C 116.4 522.4 109.1 519 102 515 C 94.9 510.9 86 505 80.8 501.2 C 76.5 498 73.4 494.9 70.9 492.1 C 68.3 489.4 67 488 65.4 484.6 C 63.4 480.4 59.9 471.2 58.7 466.7 C 57.7 463.4 57.9 461.2 58.1 458.1 C 58.3 454.9 59.1 450.4 59.9 447.9 C 60.6 445.6 61.4 444.4 62.8 442.8 C 64.2 441.2 66.4 439.8 68.4 438.4 C 70.4 436.9 72.1 435.4 75 434 C 78.1 432.6 82.2 430.7 87.3 429.6 C 94.5 428.2 112.2 425.9 118.1 425.3 C 120.1 425.1 121 426 122.9 425.9 C 127.1 425.7 138.2 424.6 142.9 423.9 C 146.2 423.5 148.9 422.3 151.1 422.1 C 153 421.9 154 422.8 156 422.6 C 159.5 422.3 168.5 420.7 172 420.4 C 174 420.2 175 421 177 421 C 180.3 420.9 188.4 420.4 191.9 419.9 C 194.5 419.6 196.1 418.3 198.1 418.1 C 200.1 417.9 201.9 419.1 203.9 418.9 C 205.9 418.7 208 417.3 210.1 417.1 C 212.1 416.9 213.6 418.1 216 418 C 220.7 417.7 233.3 415.6 238.1 415.3 C 240.8 415.1 242.4 416.1 244.9 415.9 C 247.4 415.7 250.4 414.3 253.1 414.1 C 255.8 413.9 258.2 414.8 261 414.6 C 263.8 414.5 267.3 413.2 270 413.1 C 272.7 413 274.2 414 277 414 C 281.8 414 291.7 413.3 299 413 C 306.3 412.6 315.2 412.3 320.8 411.8 C 325.7 411.4 328.3 410.2 333 410 C 337.7 409.8 344.4 410.9 348.9 410.7 C 353.4 410.6 355.5 409.1 360 409 C 364.5 408.9 370.8 410.1 376 410 C 381.2 409.9 385 408.5 391 408.4 C 397.5 408.2 406.3 409.2 415 409 C 423.7 408.8 437 407.2 443 407 C 446.2 406.9 447.8 407.9 451 408 C 457.7 408.1 471.7 408.3 483 408 C 494.3 407.7 508.5 406.3 519 406 C 529.5 405.7 540 405.9 546 406 C 549.6 406.1 551.4 407 555 407 C 561.3 407 576 406 584 406 C 591.6 406 598.7 407 603 407 C 605.8 407 607.2 406.1 610 406 C 620.6 405.8 644.6 405.4 666.4 405.4 Z M 501.3 444.5 C 498.6 444.4 494.1 444.7 491.2 445.2 C 488.3 445.6 486.2 446.4 484.1 447.1 C 482 447.8 480.6 448.2 478.4 449.4 C 476.1 450.8 473.1 452.4 470.3 455.3 C 467.3 458.3 463.2 462.9 460.7 467.7 C 458.1 472.5 456 479.5 455.1 484.1 C 454.2 488.3 454.9 492.3 455.1 494.9 C 455.2 496.9 455.6 497.9 456.2 499.8 C 456.9 502.1 458.2 506 459.4 508.6 C 460.7 511.1 461.6 512.9 463.8 515.2 C 466.7 518.3 473.4 524.4 477 527 C 480 529.1 482.7 529.7 485.4 530.6 C 488.1 531.5 490.5 532.2 493.2 532.4 C 496 532.6 498.8 532.4 501.9 531.9 C 505 531.5 508.2 531.6 511.9 529.9 C 515.7 528.1 521.6 524.3 525.2 521.2 C 528.8 518.1 531.4 514.2 533.3 511.3 C 535.2 508.6 535.8 506.9 536.9 503.9 C 537.9 500.8 539.2 496.8 539.6 493 C 540 489.2 539.7 484.2 539.4 481.2 C 539.2 478.7 538.8 477.5 537.8 475.2 C 536.3 471.8 532.6 464.4 530.2 460.8 C 528 457.5 525.4 455.6 523.2 453.8 C 521 452 519.6 451.4 517 450 C 514.4 448.6 510.2 446.5 507.6 445.5 C 505.2 444.7 503.9 444.5 501.3 444.5 Z M 765.4 444.4 C 763.3 444.6 761.7 444.7 759.4 445.4 C 756.9 446.1 753.3 447.4 750.7 448.7 C 748.1 449.9 746 451.1 743.8 452.8 C 741.7 454.5 739.8 456.1 737.8 458.8 C 735.2 462.2 730.5 469.3 728.4 473.4 C 726.5 477.1 725.8 479.4 725.2 483.2 C 724.7 487 724.4 491.8 725.1 496 C 725.9 500.2 727.4 504.6 729.4 508.6 C 731.5 512.5 734.9 516.6 737.5 519.5 C 740.2 522.3 742.7 523.9 745.4 525.6 C 748 527.3 750 528.5 753.5 529.5 C 756.9 530.6 761.6 532.1 766 532 C 770.4 531.9 776.1 530.4 780 529 C 783.9 527.6 786.7 525.6 789.6 523.6 C 792.5 521.7 794.8 519.8 797.2 517.2 C 799.7 514.7 802.3 511.2 804.2 508.2 C 806 505.2 807.2 503 808.3 499.3 C 809.4 495.6 810.9 490.7 810.9 486 C 810.8 481.3 809.6 475.4 808 471 C 806.4 466.6 803.2 462.6 801.2 459.8 C 799.4 457.3 798.2 456.2 795.7 454.3 C 793.2 452.3 788.5 449.4 786 448 C 784.1 447 783 446.7 780.9 446.1 C 778.5 445.5 774.5 444.4 771.9 444.1 C 769.3 443.8 767.5 444.2 765.4 444.4 Z M 354.8 445.6 C 350 446.5 345.2 448.1 340.8 450.8 C 336.5 453.5 331.7 458.7 328.8 461.8 C 326.3 464.5 324.8 466.7 323.4 469.4 C 322 472.2 321.1 475.9 320.4 478.4 C 319.7 480.6 319.3 481.7 319.1 484.1 C 318.8 486.8 318.6 491.4 319 495 C 319.4 498.6 320.1 502.2 321.4 505.6 C 322.6 509 324.3 512.5 326.5 515.5 C 328.8 518.4 331.8 520.8 334.8 523.2 C 337.8 525.5 340.4 528 344.4 529.6 C 348.5 531.1 353.9 532.7 358.9 532.7 C 363.9 532.7 370 531.3 374.6 529.6 C 379.1 527.8 383.1 524.6 386.2 522.2 C 389.3 519.8 391 518.5 393.2 515.2 C 395.8 511.6 399.5 505.3 401.2 500.4 C 403 495.5 404.4 491.6 403.9 486.1 C 403.5 480.6 401.3 472.8 398.5 467.5 C 395.8 462.1 390.5 457 387.2 453.8 C 384.2 451 381.4 449.9 378.5 448.5 C 375.7 447 373.5 445.7 369.9 445.3 C 365.9 444.8 359.6 444.6 354.8 445.6 Z M 626.3 445.5 C 621.9 446.3 616.5 449.1 613.4 450.4 C 611.1 451.5 609.8 452.1 607.8 453.8 C 605.4 456.1 601.7 459.7 598.8 463.8 C 595.9 467.9 592.3 473.4 590.7 478.3 C 589 483.1 588.9 488.3 589.1 492.9 C 589.2 497.5 590.4 502.1 591.6 505.8 C 592.9 509.4 594.5 511.9 596.4 514.6 C 598.3 517.3 600.8 520.2 602.8 522.2 C 604.8 524.2 606.1 525.2 608.4 526.6 C 610.7 528 613.9 529.7 616.4 530.6 C 618.8 531.5 620.4 531.7 623.1 531.9 C 626.3 532.2 632.4 532.6 635.7 532.3 C 638.9 532.1 640.8 531.3 643.3 530.3 C 645.8 529.3 647.9 528.4 650.6 526.6 C 653.7 524.4 659.1 520.4 662.2 517.2 C 665.3 514 667.6 509.8 669.2 507.2 C 670.5 505.1 670.8 503.7 671.6 501.6 C 672.4 499.5 673.3 497.6 673.8 494.8 C 674.3 491.9 675.3 488.3 674.6 484 C 673.9 479.4 671.1 471.3 669.6 467.4 C 668.4 464.5 666.8 462.7 665.2 460.8 C 663.6 458.9 662.4 457.5 660.2 455.8 C 657.7 453.8 652.6 450.5 650 449 C 647.9 447.8 646.1 447.3 644.4 446.8 C 642.7 446.2 641.7 445.7 639.8 445.6 C 636.8 445.4 630.7 444.7 626.3 445.5 Z"/>
  <path fill="#D8433B" fill-rule="evenodd" d="M 62 246 C 80.3 246 106.3 245.6 116.9 246.1 C 120.7 246.3 123.2 247.5 126 249 C 128.8 250.6 131.4 252 133.7 255.3 C 149.8 278.3 206.2 362.8 222.6 387.4 C 226.6 393.5 230.6 400.2 232 403 C 232.3 403.5 231.6 403.9 231.1 404.1 C 230.1 404.6 228.1 405.7 225.9 405.9 C 223.3 406.3 219.4 405.7 215.1 406.1 C 194.1 407.8 138.4 412.7 100 416 C 86.7 364.9 67.2 290.5 60.2 262.8 C 58.9 257.8 57.7 252.8 58 250 C 58.2 247.8 60.7 247.3 62 246 Z M 400.4 288.4 C 409.7 287.9 439.4 287.9 450 288 C 455.5 288.1 459.9 288.5 463.8 289.2 C 467.7 289.9 470.1 290.2 473.6 292.4 C 484.8 299.9 508.8 317.2 531.2 333.8 C 553.6 350.4 582.4 372.6 608 392 C 607.1 392.8 606.3 393.8 605.3 394.3 C 604.3 394.8 603.3 395 602 395 C 593.1 395.1 561.5 394.8 552 395 C 549.2 395.1 547.8 396 545 396 C 528.2 396.1 482.6 395.7 451.5 395.5 C 450.3 394.4 449 393.7 448 392 C 438.7 375.8 404.4 315.4 395.4 298.6 C 394 295.8 393.2 292.7 394 291 C 394.8 289.3 397.6 288.5 400.4 288.4 Z M 414.4 565.4 C 422.4 565.1 448.9 564.9 457 565 C 459.4 565 460.6 565.9 463 566 C 470.4 566.1 489.5 565.7 501 566 C 512.5 566.4 523.2 567.6 532 568 C 540.8 568.3 545.2 567.7 554 568 C 567 568.5 600 570.4 609.9 571.1 C 611.5 571.2 612.9 571.7 613.8 572.2 C 614.5 572.6 614.6 573.4 615 574 C 589.5 590.5 562.7 608.3 538.6 623.6 C 514.5 638.9 491.9 652.9 470.6 665.6 C 449.3 678.3 433.4 687.5 411 700 C 388.6 712.4 350.7 733 336.3 740.3 C 332 742.5 329.4 742.9 324.8 743.8 C 320.2 744.7 315.3 745.6 308.9 745.9 C 300.6 746.3 284.4 746.5 275 746 C 265.9 745.4 256.8 743.4 252.4 742.6 C 250.9 742.3 250.1 742 248.8 741.2 C 247.4 740.2 245 737.9 244 737 C 243.6 736.6 243.1 736.5 243 736 C 242.8 735.3 242.8 734.2 243 733 C 243.3 731.7 243.2 729.9 244.4 728.4 C 247.6 724.3 254.7 716 262.3 708.3 C 276 694.1 304.9 665.1 326.8 643.8 C 348.6 622.4 379.6 593.1 393.3 580.3 C 399.3 574.6 405.3 569.3 408.8 566.8 C 410.7 565.5 412.1 565.5 414.4 565.4 Z"/>
  <path fill="#5B8FC7" fill-rule="evenodd" d="M 359.4 454.4 C 362.3 454.4 366.8 454.2 370.6 455.4 C 374.4 456.6 379.5 459.9 382.2 461.8 C 384.6 463.4 385.6 464.9 387.2 466.8 C 388.7 468.8 390.5 471.2 391.6 473.4 C 392.7 475.7 393.3 477.7 393.8 480.2 C 394.3 482.7 394.8 485 394.4 488.2 C 394 491.7 393 497.3 391.3 501.3 C 389.6 505.3 386.8 509.3 384.1 512.1 C 381.5 515 378 517 375.6 518.6 C 373.3 520.1 372.1 520.8 369.5 521.5 C 366.9 522.3 363.3 523 360 523 C 356.7 523 353.2 523 349.5 521.5 C 345.8 520.1 340.3 516.1 337.8 514.2 C 336.1 513.1 335.5 512.2 334.4 510.6 C 333.1 508.7 331.2 506.1 330 503 C 328.8 499.9 327.5 496.1 327.4 492 C 327.3 487.9 327.8 482.8 329.4 478.4 C 331 474 334 469.2 336.8 465.8 C 339.6 462.5 343.6 460.1 346.3 458.3 C 348.9 456.7 351.2 456.1 353.4 455.4 C 355.6 454.7 357 454.4 359.4 454.4 Z M 492.4 454.4 C 495.1 454 498.7 453.9 500.9 454.1 C 502.9 454.2 504 454.4 505.8 455.2 C 508.5 456.3 514.1 458.7 517.2 460.8 C 520.3 462.9 522.3 465.4 524.2 467.8 C 526.1 470.2 527.4 472.4 528.6 475.4 C 529.7 478.5 530.8 482.4 530.9 486.1 C 531.1 489.8 530.9 493.7 529.6 497.6 C 528.3 501.4 525.9 505.7 523.2 509.2 C 520.5 512.7 516.2 516.5 513.6 518.6 C 511.5 520.3 509.7 520.9 507.6 521.6 C 505.5 522.3 503.6 522.9 500.9 522.9 C 497.6 522.9 491.6 522.9 487.4 521.6 C 483.2 520.3 479.2 518.1 475.8 515.2 C 472.4 512.3 469 507.5 467 504 C 465.1 500.4 464.5 497.6 464.1 493.9 C 463.6 490.3 463.4 486 464.2 482.2 C 465 478.3 466.4 474.4 468.8 470.8 C 471.2 467.2 475.7 462.7 478.4 460.4 C 480.6 458.4 482.3 457.7 484.7 456.7 C 487 455.7 489.7 454.8 492.4 454.4 Z M 761.4 454.4 C 765.4 453.8 771.8 453.5 775.8 454.2 C 779.8 454.9 782.5 456.5 785.6 458.4 C 788.7 460.3 791.7 462.3 794.2 465.8 C 796.7 469.3 799.7 474.7 800.8 479.2 C 801.9 483.7 801.5 488.7 800.8 492.8 C 800.1 496.9 799 499.9 796.6 503.6 C 794.2 507.3 790.2 512.2 786.2 515.2 C 782.2 518.2 777.3 520.7 772.8 521.8 C 768.3 522.9 763.3 522.7 759.2 521.8 C 755.1 520.9 751.7 519 748.4 516.6 C 745.1 514.2 741.8 511.1 739.4 507.6 C 737 504.1 735.1 499.5 734.2 495.8 C 733.3 492.1 733.3 489.3 734.2 485.2 C 735.1 481.1 737.3 475.3 739.4 471.4 C 741.5 467.5 744.7 464 746.8 461.8 C 748.6 459.9 749.7 459.2 752 458 C 754.4 456.8 757.4 455 761.4 454.4 Z M 625.4 455.4 C 629.8 454.4 635.4 454.4 639.8 455.2 C 644.2 456 648.1 457.9 651.6 460.4 C 655.1 462.9 658.4 466.8 660.6 470.4 C 662.8 474 664.2 478.5 664.9 482.1 C 665.6 485.7 665.1 489.3 664.9 491.9 C 664.7 494.3 664.6 495.5 663.6 497.6 C 662.3 500.5 660.1 505.6 657.2 509.2 C 654.3 512.8 648.9 516.9 646 519 C 643.8 520.6 642.4 521 639.8 521.8 C 637.1 522.6 633.4 523.8 629.9 523.7 C 626.3 523.7 622.1 523 618.5 521.5 C 614.9 520 610.8 516.9 608.3 514.7 C 605.9 512.7 604.8 510.7 603.4 508.6 C 602 506.5 600.9 504.4 600 502 C 599.1 499.5 598.4 496.4 598.1 493.9 C 597.8 491.4 597.7 489.7 598.1 487.1 C 598.4 484.5 599.1 481 600.2 478.2 C 601.2 475.4 602.2 473.2 604.4 470.4 C 606.6 467.6 609.9 463.9 613.4 461.4 C 616.9 458.9 621 456.4 625.4 455.4 Z"/>
  <path fill="#26292E" fill-rule="evenodd" d="M 61.4 234.4 C 71.7 233.9 105.2 233.9 115.8 234.2 C 119.5 234.3 122 235.2 124.9 236.1 C 127.7 237.1 130 238.1 133 240 C 136 242 140.1 243.7 143.1 247.9 C 156.7 266.8 197.3 327.4 214.6 353.4 C 227.9 373.4 236.2 387.1 247 404 C 270 402.7 288.4 401 316 400 C 343.7 399 393 398.7 413 398 C 422.2 397.7 428.3 396.7 436 396 C 419.2 365.8 394.8 322.1 385.7 305.3 C 383.6 301.6 382.1 298.1 381.4 295.6 C 380.8 293.6 380.7 292.4 381.4 290.4 C 382.2 288 384 283.5 386.3 281.3 C 388.6 279.1 391.4 278 395.2 277.2 C 399.2 276.3 404.1 276.2 410 276 C 416.3 275.8 423.8 275.7 433 276 C 442.6 276.4 460.8 277.4 467.8 278.2 C 471 278.5 472.4 279.4 475.3 280.7 C 478.6 282.2 483.1 284.1 487.6 287.4 C 513.8 306.4 584.1 358.9 632.4 394.6 C 688.9 394.7 770.4 394.8 802 395 C 810 395.1 814 395.2 821.9 396.1 C 831.1 397.1 847.5 399.3 856.8 401.2 C 865.3 402.9 871.8 405.4 877.6 407.4 C 883.3 409.4 886.2 410.6 891.6 413.4 C 897.2 416.4 905.9 421.6 911.6 425.4 C 917.3 429.2 921.4 432.5 925.7 436.3 C 930.1 440.1 934.1 444.1 937.7 448.3 C 941.4 452.5 944.7 457 947.6 461.4 C 950.5 465.8 953 469.5 955.3 474.7 C 957.7 479.8 960.5 486.1 961.8 492.2 C 963.1 498.2 963 506.6 963 511 C 963 514.1 962.4 515.6 961.6 518.6 C 960.8 521.6 959.9 525.2 958 529 C 956.1 532.7 953.7 536.9 950.2 541.2 C 946.7 545.5 941 551 936.7 554.7 C 932.5 558.5 929.4 560.6 924.6 563.6 C 919.8 566.7 913.8 570.2 908 573 C 902.2 575.8 897.2 578.1 889.6 580.6 C 881.6 583.2 870.6 586.6 859.8 588.8 C 849 591 838.1 592.7 824.9 593.9 C 811.8 595.1 794.1 595.6 781 596 C 767.8 596.3 753.5 596.1 746 596 C 742 595.9 740 595.1 736 595 C 724 594.8 686.7 594.8 674 595 C 668.4 595.1 665.6 596 660 596 C 648.2 596.1 624.5 588 603.4 595.4 C 582.3 602.8 554.8 627.2 533.6 640.6 C 512.4 654 495.8 664.3 476 676 C 456.2 687.7 438 698.3 415 711 C 392 723.6 353.4 744.5 338 752 C 332.4 754.7 328.8 755 322.8 755.8 C 316.8 756.6 310.3 756.8 302 757 C 293.4 757.2 278.9 757.3 271.1 756.9 C 264.7 756.6 259.4 755.6 255.2 754.8 C 251.3 754.1 248.5 753.5 245.6 752.2 C 242.7 751 240 749.4 237.8 747.2 C 235.6 745.1 233.5 742.3 232.4 739.6 C 231.3 736.9 230.6 734.5 231.2 731.2 C 231.8 727.9 232.9 723.8 235.8 719.8 C 239.9 714.2 247.5 706.3 255.8 697.8 C 268.3 684.8 292.5 660.4 311.3 642.3 C 330 624.1 349.1 606.8 368 589 C 367.8 588.5 367.8 587.9 367.5 587.5 C 367.2 587 366.7 586.5 366 586.4 C 365.1 586.3 363.6 587 362.1 586.9 C 358.2 586.7 347.3 585.5 343.1 584.9 C 340.5 584.6 339.4 583.6 336.9 583.3 C 332.9 582.8 323.1 582.4 319.1 581.9 C 316.5 581.6 315.4 580.6 312.9 580.3 C 310 579.9 304.3 579.9 302 579.6 C 300.7 579.4 300.3 578.6 299 578.4 C 292.5 577.4 277.4 576.2 263.2 573.8 C 248.2 571.3 224.8 566.9 209.3 563.5 C 193.8 560.2 182 557.1 170.2 553.8 C 158.4 550.5 149.1 547.6 138.4 543.6 C 127.7 539.6 116 535 106 530 C 96 525 85.7 518.7 78.4 513.6 C 71.4 508.8 65.8 503.2 62.3 499.7 C 59.8 497.4 58.7 496 57 493 C 54.8 489.2 51 482 49.2 476.8 C 47.4 471.6 46.4 466.7 46.1 461.9 C 45.8 457.2 46.3 452.5 47.4 448.4 C 48.4 444.3 50.3 440.5 52.4 437.4 C 54.5 434.3 56.8 432.1 59.8 429.8 C 62.9 427.5 66.2 425.7 70.7 423.7 C 75.2 421.7 81.6 419.9 87 418 C 74.7 369.6 57 300.2 50.2 272.8 C 48.3 265.3 46.8 257.9 46.2 253.8 C 45.9 251.7 45.8 250.5 46.4 248.4 C 47 246.2 48.5 242.7 49.8 240.8 C 51.1 238.9 52.1 238.1 54 237 C 55.9 235.9 58.3 234.5 61.4 234.4 Z M 62.5 246.5 C 61 247.6 58.3 247.7 58 250 C 57.6 252.7 58.9 257.8 60.2 262.8 C 67.2 290.5 86.7 364.9 100 416 C 138.4 412.7 194.1 407.8 215.1 406.1 C 219.4 405.7 223.3 406.3 225.9 405.9 C 228.1 405.7 230.1 404.6 231.1 404.1 C 231.6 403.9 232.3 403.5 232 403 C 230.6 400.2 226.6 393.5 222.6 387.4 C 206.2 362.8 149.8 278.3 133.7 255.3 C 131.4 252 128.8 250.6 126 249 C 123.2 247.5 120.7 246.2 116.9 246.1 C 106.3 245.6 80.6 246.3 62.5 246.5 Z M 400.4 288.4 C 397.6 288.5 394.8 289.3 394 291 C 393.2 292.7 394 295.8 395.4 298.6 C 404.4 315.4 438.7 375.8 448 392 C 449 393.7 450.3 394.4 451.5 395.5 C 482.6 395.7 528.2 396.1 545 396 C 547.8 396 549.2 395.1 552 395 C 561.5 394.8 593.1 395.1 602 395 C 603.3 395 604.3 394.8 605.3 394.3 C 606.3 393.8 607.1 392.8 608 392 C 582.4 372.6 553.6 350.4 531.2 333.8 C 508.8 317.2 484.8 299.9 473.6 292.4 C 470.1 290.2 467.7 289.9 463.8 289.2 C 459.9 288.5 455.5 288.1 450 288 C 439.4 287.9 409.7 287.9 400.4 288.4 Z M 666.4 405.4 C 644.6 405.4 620.6 405.8 610 406 C 607.2 406.1 605.8 407 603 407 C 598.7 407 591.6 406 584 406 C 576 406 561.3 407 555 407 C 551.4 407 549.6 406.1 546 406 C 540 405.9 529.5 405.7 519 406 C 508.5 406.3 494.3 407.7 483 408 C 471.7 408.3 457.7 408.1 451 408 C 447.8 407.9 446.2 406.9 443 407 C 437 407.2 423.7 408.8 415 409 C 406.3 409.2 397.5 408.2 391 408.4 C 385 408.5 381.2 409.9 376 410 C 370.8 410.1 364.5 408.9 360 409 C 355.5 409.1 353.4 410.6 348.9 410.7 C 344.4 410.9 337.7 409.8 333 410 C 328.3 410.2 325.7 411.4 320.8 411.8 C 315.2 412.3 306.3 412.6 299 413 C 291.7 413.3 281.8 414 277 414 C 274.2 414 272.7 413 270 413.1 C 267.3 413.2 263.8 414.5 261 414.6 C 258.2 414.8 255.8 413.9 253.1 414.1 C 250.4 414.3 247.4 415.7 244.9 415.9 C 242.4 416.1 240.8 415.1 238.1 415.3 C 233.3 415.6 220.7 417.7 216 418 C 213.6 418.1 212.1 416.9 210.1 417.1 C 208 417.3 205.9 418.7 203.9 418.9 C 201.9 419.1 200.1 417.9 198.1 418.1 C 196.1 418.3 194.5 419.6 191.9 419.9 C 188.4 420.4 180.3 420.9 177 421 C 175 421 174 420.2 172 420.4 C 168.5 420.7 159.5 422.3 156 422.6 C 154 422.8 153 421.9 151.1 422.1 C 148.9 422.3 146.2 423.5 142.9 423.9 C 138.2 424.6 127.1 425.7 122.9 425.9 C 121 426 120.1 425.1 118.1 425.3 C 112.2 425.9 94.5 428.2 87.3 429.6 C 82.2 430.7 78.1 432.6 75 434 C 72.1 435.4 70.4 436.9 68.4 438.4 C 66.4 439.8 64.2 441.2 62.8 442.8 C 61.4 444.4 60.6 445.6 59.9 447.9 C 59.1 450.4 58.3 454.9 58.1 458.1 C 57.9 461.2 57.7 463.4 58.7 466.7 C 59.9 471.2 63.4 480.4 65.4 484.6 C 67 488 68.3 489.4 70.9 492.1 C 73.4 494.9 76.5 498 80.8 501.2 C 86 505 94.9 510.9 102 515 C 109.1 519 116.4 522.4 123.4 525.6 C 130.5 528.7 135.7 530.9 144.2 533.8 C 154.2 537.2 167.4 541.9 183.2 545.8 C 201.2 550.3 232.6 557 252 560.6 C 270.9 564.1 291 566.1 299.7 567.5 C 301.5 567.8 302.2 568.7 304.1 568.9 C 307.9 569.4 315.4 569.4 322.9 570.3 C 334.1 571.5 361.3 575.6 371.2 576.4 C 375.6 576.8 378.4 577.4 382.2 575.2 C 386.6 572.6 393.6 564.1 397.8 560.8 C 401.2 558.2 403 556 407.3 555.6 C 417.3 554.7 448.5 555.2 458 555 C 460.4 554.9 461.5 554 463.9 554.1 C 468.1 554.2 476.9 555.6 483.1 555.7 C 489.3 555.9 496.3 554.9 501 555 C 505 555.1 506.9 556.5 511 556.6 C 515.2 556.8 520.6 555.8 526 556 C 531.3 556.2 538.8 557.8 543 558 C 546.2 558.1 547.8 556.9 551 557 C 557.5 557.3 575.6 559.4 582.1 559.7 C 585.3 559.9 587.6 558.9 590 559 C 592.3 559.1 593.9 560.2 596.2 560.4 C 598.5 560.6 600.8 559.8 603.9 560.1 C 608 560.4 617 561.5 620.8 562.2 C 623.4 562.6 625.5 563 627 564 C 628.5 565 629.6 566.2 630 568 C 630.4 569.8 630.5 572.1 629.5 574.5 C 628.5 577 624.4 581.4 624 583 C 623.7 584.2 625.8 583.8 627.1 583.9 C 631.1 584.3 642 584.9 648 585 C 654 585 659 584 663 584 C 666.6 584 669.2 585 672 585 C 674.8 585 677.5 584 680 584 C 682.5 584 684.2 585 687 585 C 699.5 585 741.1 584.3 755.1 584.3 C 761.5 584.3 764.6 585.2 771 585 C 778.3 584.8 790.2 583.4 799 583 C 807.8 582.7 814.9 583.5 823.8 582.8 C 832.8 582 844 580.2 852.7 578.5 C 861.3 576.9 867.5 575.5 875.8 572.8 C 884.1 570.1 895.7 565.6 902.5 562.5 C 908.4 559.9 911.3 558.2 916.6 554.6 C 922 551 930.1 545.1 934.7 540.7 C 939.3 536.5 942.5 531.6 944.6 528.6 C 946.2 526.4 946.7 525.1 947.6 522.6 C 948.7 519.8 950.4 515.8 950.9 511.9 C 951.5 508 951.2 503 950.8 499.2 C 950.4 495.4 949.5 492.3 948.6 489.4 C 947.7 486.5 946.9 484.6 945.3 481.7 C 943.2 477.7 938.6 469.9 935.6 465.4 C 932.6 460.9 931 458.7 927.2 454.8 C 923.2 450.5 916.3 444 911.2 439.8 C 906.1 435.6 902.8 433.1 896.6 429.4 C 890.2 425.8 881.8 420.9 873.3 417.7 C 864.9 414.5 854.4 412 845.9 410.3 C 837.3 408.5 827 407.7 821.9 407.3 C 819.1 407.1 817.8 408.1 815 408 C 811.2 407.8 805.5 406.1 799 406 C 789.3 405.8 765 407 757 407 C 754.6 407 752.8 406.1 750.9 406.1 C 749.1 406.1 747.7 406.9 746 406.9 C 744.3 406.8 743 406.1 741 406 C 727.7 405.8 688.2 405.4 666.4 405.4 Z M 501.3 444.5 C 503.9 444.5 505.2 444.7 507.6 445.5 C 510.2 446.5 514.4 448.6 517 450 C 519.6 451.4 521 452 523.2 453.8 C 525.4 455.6 528 457.5 530.2 460.8 C 532.6 464.4 536.3 471.8 537.8 475.2 C 538.8 477.5 539.2 478.7 539.4 481.2 C 539.7 484.2 540 489.2 539.6 493 C 539.2 496.8 537.9 500.8 536.9 503.9 C 535.8 506.9 535.2 508.6 533.3 511.3 C 531.4 514.2 528.8 518.1 525.2 521.2 C 521.6 524.3 515.7 528.1 511.9 529.9 C 508.2 531.6 505 531.5 501.9 531.9 C 498.8 532.4 496 532.6 493.2 532.4 C 490.5 532.2 488.1 531.5 485.4 530.6 C 482.7 529.7 480 529.1 477 527 C 473.4 524.4 466.7 518.3 463.8 515.2 C 461.6 512.9 460.7 511.1 459.4 508.6 C 458.2 506 456.9 502.1 456.2 499.8 C 455.6 497.9 455.2 496.9 455.1 494.9 C 454.9 492.3 454.2 488.3 455.1 484.1 C 456 479.5 458.1 472.5 460.7 467.7 C 463.2 462.9 467.3 458.3 470.3 455.3 C 473.1 452.4 476.1 450.8 478.4 449.4 C 480.6 448.2 482 447.8 484.1 447.1 C 486.2 446.4 488.3 445.6 491.2 445.2 C 494.1 444.7 498.6 444.4 501.3 444.5 Z M 765.4 444.4 C 767.5 444.2 769.3 443.8 771.9 444.1 C 774.5 444.4 778.5 445.5 780.9 446.1 C 783 446.7 784.1 447 786 448 C 788.5 449.4 793.2 452.3 795.7 454.3 C 798.2 456.2 799.4 457.3 801.2 459.8 C 803.2 462.6 806.4 466.6 808 471 C 809.6 475.4 810.8 481.3 810.9 486 C 810.9 490.7 809.4 495.6 808.3 499.3 C 807.2 503 806 505.2 804.2 508.2 C 802.3 511.2 799.7 514.7 797.2 517.2 C 794.8 519.8 792.5 521.7 789.6 523.6 C 786.7 525.6 783.9 527.6 780 529 C 776.1 530.4 770.4 531.9 766 532 C 761.6 532.1 756.9 530.6 753.5 529.5 C 750 528.5 748 527.3 745.4 525.6 C 742.7 523.9 740.2 522.3 737.5 519.5 C 734.9 516.6 731.5 512.5 729.4 508.6 C 727.4 504.6 725.9 500.2 725.1 496 C 724.4 491.8 724.7 487 725.2 483.2 C 725.8 479.4 726.5 477.1 728.4 473.4 C 730.5 469.3 735.2 462.2 737.8 458.8 C 739.8 456.1 741.7 454.5 743.8 452.8 C 746 451.1 748.1 449.9 750.7 448.7 C 753.3 447.4 756.9 446.1 759.4 445.4 C 761.7 444.7 763.3 444.6 765.4 444.4 Z M 354.2 445.6 C 359 444.7 365.8 444.8 369.9 445.3 C 373.5 445.7 375.7 447 378.5 448.5 C 381.4 449.9 384.2 451 387.2 453.8 C 390.5 457 395.8 462.1 398.5 467.5 C 401.3 472.8 403.5 480.6 403.9 486.1 C 404.4 491.6 403 495.5 401.2 500.4 C 399.5 505.3 395.8 511.6 393.2 515.2 C 391 518.5 389.3 519.8 386.2 522.2 C 383.1 524.6 379.1 527.8 374.6 529.6 C 370 531.3 363.9 532.7 358.9 532.7 C 353.9 532.7 348.5 531.1 344.4 529.6 C 340.4 528 337.8 525.5 334.8 523.2 C 331.8 520.8 328.8 518.4 326.5 515.5 C 324.3 512.5 322.6 509 321.4 505.6 C 320.1 502.2 319.4 498.6 319 495 C 318.6 491.4 318.8 486.8 319.1 484.1 C 319.3 481.7 319.7 480.6 320.4 478.4 C 321.1 475.9 322.1 472.1 323.4 469.4 C 324.8 466.8 326 464.9 328.4 462.4 C 331.3 459.3 336.5 453.6 340.8 450.8 C 345.1 448 349.4 446.5 354.2 445.6 Z M 626.3 445.5 C 630.7 444.7 636.8 445.4 639.8 445.6 C 641.7 445.7 642.7 446.2 644.4 446.8 C 646.1 447.3 647.9 447.8 650 449 C 652.6 450.5 657.7 453.8 660.2 455.8 C 662.4 457.5 663.6 458.9 665.2 460.8 C 666.8 462.7 668.4 464.5 669.6 467.4 C 671.1 471.3 673.9 479.4 674.6 484 C 675.3 488.3 674.3 491.9 673.8 494.8 C 673.3 497.6 672.4 499.5 671.6 501.6 C 670.8 503.7 670.5 505.1 669.2 507.2 C 667.6 509.8 665.3 514 662.2 517.2 C 659.1 520.4 653.7 524.4 650.6 526.6 C 647.9 528.4 645.8 529.3 643.3 530.3 C 640.8 531.3 638.9 532.1 635.7 532.3 C 632.4 532.6 626.3 532.2 623.1 531.9 C 620.4 531.7 618.8 531.5 616.4 530.6 C 613.9 529.7 610.7 528 608.4 526.6 C 606.1 525.2 604.8 524.2 602.8 522.2 C 600.8 520.2 598.3 517.3 596.4 514.6 C 594.5 511.9 592.9 509.4 591.6 505.8 C 590.4 502.1 589.2 497.5 589.1 492.9 C 588.9 488.3 589 483.1 590.7 478.3 C 592.3 473.4 595.9 467.9 598.8 463.8 C 601.7 459.7 605.4 456.1 607.8 453.8 C 609.8 452.1 611.1 451.5 613.4 450.4 C 616.5 449.1 621.9 446.3 626.3 445.5 Z M 359.4 454.4 C 357 454.4 355.6 454.7 353.4 455.4 C 351.2 456.1 348.9 456.7 346.3 458.3 C 343.6 460.1 339.6 462.5 336.8 465.8 C 334 469.2 331 474 329.4 478.4 C 327.8 482.8 327.3 487.9 327.4 492 C 327.5 496.1 328.8 499.9 330 503 C 331.2 506.1 333.1 508.7 334.4 510.6 C 335.5 512.2 336.1 513.1 337.8 514.2 C 340.3 516.1 345.8 520.1 349.5 521.5 C 353.2 523 356.7 523 360 523 C 363.3 523 366.9 522.3 369.5 521.5 C 372.1 520.8 373.3 520.1 375.6 518.6 C 378 517 381.5 515 384.1 512.1 C 386.8 509.3 389.6 505.3 391.3 501.3 C 393 497.3 394 491.7 394.4 488.2 C 394.8 485 394.3 482.7 393.8 480.2 C 393.3 477.7 392.7 475.7 391.6 473.4 C 390.5 471.2 388.7 468.8 387.2 466.8 C 385.6 464.9 384.6 463.4 382.2 461.8 C 379.5 459.9 374.4 456.6 370.6 455.4 C 366.8 454.2 362.3 454.4 359.4 454.4 Z M 492.4 454.4 C 489.7 454.8 487 455.7 484.7 456.7 C 482.3 457.7 480.6 458.4 478.4 460.4 C 475.7 462.7 471.2 467.2 468.8 470.8 C 466.4 474.4 465 478.3 464.2 482.2 C 463.4 486 463.6 490.3 464.1 493.9 C 464.5 497.6 465.1 500.4 467 504 C 469 507.5 472.4 512.3 475.8 515.2 C 479.2 518.1 483.2 520.3 487.4 521.6 C 491.6 522.9 497.6 522.9 500.9 522.9 C 503.6 522.9 505.5 522.3 507.6 521.6 C 509.7 520.9 511.5 520.3 513.6 518.6 C 516.2 516.5 520.5 512.7 523.2 509.2 C 525.9 505.7 528.3 501.4 529.6 497.6 C 530.9 493.7 531.1 489.8 530.9 486.1 C 530.8 482.4 529.7 478.5 528.6 475.4 C 527.4 472.4 526.1 470.2 524.2 467.8 C 522.3 465.4 520.3 462.9 517.2 460.8 C 514.1 458.7 508.5 456.3 505.8 455.2 C 504 454.4 502.9 454.2 500.9 454.1 C 498.7 453.9 495.1 454 492.4 454.4 Z M 761.4 454.4 C 757.4 455 754.4 456.8 752 458 C 749.7 459.2 748.6 459.9 746.8 461.8 C 744.7 464 741.5 467.5 739.4 471.4 C 737.3 475.3 735.1 481.1 734.2 485.2 C 733.3 489.3 733.3 492.1 734.2 495.8 C 735.1 499.5 737 504.1 739.4 507.6 C 741.8 511.1 745.1 514.2 748.4 516.6 C 751.7 519 755.1 520.9 759.2 521.8 C 763.3 522.7 768.3 522.9 772.8 521.8 C 777.3 520.7 782.2 518.2 786.2 515.2 C 790.2 512.2 794.2 507.3 796.6 503.6 C 799 499.9 800.1 496.9 800.8 492.8 C 801.5 488.7 801.9 483.7 800.8 479.2 C 799.7 474.7 796.7 469.3 794.2 465.8 C 791.7 462.3 788.7 460.3 785.6 458.4 C 782.5 456.5 779.8 454.9 775.8 454.2 C 771.8 453.5 765.4 453.8 761.4 454.4 Z M 625.4 455.4 C 621 456.4 616.9 458.9 613.4 461.4 C 609.9 463.9 606.6 467.6 604.4 470.4 C 602.2 473.2 601.2 475.4 600.2 478.2 C 599.1 481 598.4 484.5 598.1 487.1 C 597.7 489.7 597.8 491.4 598.1 493.9 C 598.4 496.4 599.1 499.5 600 502 C 600.9 504.4 602 506.5 603.4 508.6 C 604.8 510.7 605.9 512.7 608.3 514.7 C 610.8 516.9 614.9 520 618.5 521.5 C 622.1 523 626.3 523.7 629.9 523.7 C 633.4 523.8 637.1 522.6 639.8 521.8 C 642.4 521 643.8 520.6 646 519 C 648.9 516.9 654.3 512.8 657.2 509.2 C 660.1 505.6 662.3 500.5 663.6 497.6 C 664.6 495.5 664.7 494.3 664.9 491.9 C 665.1 489.3 665.6 485.7 664.9 482.1 C 664.2 478.5 662.8 474 660.6 470.4 C 658.4 466.8 655.1 462.9 651.6 460.4 C 648.1 457.9 644.2 456 639.8 455.2 C 635.4 454.4 629.8 454.4 625.4 455.4 Z M 414.4 565.4 C 412.1 565.5 410.7 565.5 408.8 566.8 C 405.3 569.3 399.3 574.6 393.3 580.3 C 379.6 593.1 348.6 622.4 326.8 643.8 C 304.9 665.1 276 694.1 262.3 708.3 C 254.7 716 247.6 724.3 244.4 728.4 C 243.2 729.9 243.1 731.6 243 733 C 243 734.4 243 735.7 244 737 C 245 738.4 247.4 740.2 248.8 741.2 C 250.1 742 250.9 742.3 252.4 742.6 C 256.8 743.4 265.9 745.4 275 746 C 284.4 746.5 300.6 746.3 308.9 745.9 C 315.3 745.6 320.2 744.7 324.8 743.8 C 329.4 742.9 332 742.5 336.3 740.3 C 350.7 733 388.6 712.4 411 700 C 433.4 687.5 449.3 678.3 470.6 665.6 C 491.9 652.9 514.5 638.9 538.6 623.6 C 562.7 608.3 589.5 590.5 615 574 C 614.6 573.4 614.5 572.6 613.8 572.2 C 612.9 571.7 611.5 571.2 609.9 571.1 C 600 570.4 567 568.5 554 568 C 545.2 567.7 540.8 568.3 532 568 C 523.2 567.6 512.5 566.4 501 566 C 489.5 565.7 470.4 566.1 463 566 C 460.6 565.9 459.4 565 457 565 C 448.9 564.9 422.4 565.1 414.4 565.4 Z"/>
</svg>
