<svg xmlns="http://www.w3.org/2000/svg" viewBox="0 0 1000 1000" width="1000" height="1000">
  <path fill="#F7CF46" fill-rule="evenodd" d="M 308.4 317.4 C 309.8 317.1 310.6 316.9 311.9 317.1 C 313.3 317.2 314.9 317.5 316.6 318.4 C 319.3 319.8 324.1 322.2 328.2 325.8 C 332.5 329.5 338.4 336.3 342.2 340.8 C 346 345.3 348 347.8 351.2 352.8 C 355.3 359.4 361.4 368.8 367 380 C 374.4 394.8 387.8 426.1 395.4 441.6 C 401.8 454.5 407.1 462.5 413 473 C 411.2 474.2 410.1 475.8 407.6 476.6 C 402 478.3 388.7 480.7 379.2 483.2 C 369.6 485.6 361.8 487.8 350.4 491.4 C 336.1 495.9 312.2 503.4 293.4 510.4 C 274.6 517.4 254 526 237.4 533.4 C 220.9 540.9 206.5 548.4 194 555 C 181.5 561.7 172.3 567.3 162.4 573.4 C 152.5 579.5 142.4 586.4 134.8 591.8 C 127.4 597.1 123.2 600.4 116.8 605.8 C 110.4 611.2 100.1 621 96.2 624.2 C 95.2 625 93.6 625.3 93 625 C 92.4 624.7 92.4 623.3 92.6 622.2 C 93.3 618.2 95.2 609 97.2 601.2 C 99.2 593.4 102 583.5 104.4 575.4 C 106.8 567.3 108.2 561.5 111.5 552.5 C 115.3 541.8 121.9 524.4 127.5 511.5 C 133.1 498.6 139.6 485.5 145 475 C 150.4 464.6 154.7 457.2 159.8 448.8 C 164.9 440.4 170.1 432.2 175.4 424.4 C 180.7 416.6 186.8 408.2 191.8 401.8 C 196.8 395.5 199.7 392.3 205.3 386.3 C 211.2 379.8 222 368.5 227.3 363.3 C 230.9 359.6 232.8 358 236.8 354.8 C 242.4 350.4 254.4 341.2 260.8 336.8 C 266.4 333 270.1 331.1 275.4 328.4 C 280.8 325.8 287.6 323 293.1 321.1 C 298.6 319.3 305.3 318.1 308.4 317.4 Z M 259.6 379.6 C 258.2 379.9 258.4 381.5 257.2 382.2 C 255.8 383 252.7 382.7 251.4 384.4 C 250.1 386.1 249.3 389 249.2 392.2 C 248.8 401.1 249.2 429.8 249 438 C 249 439.3 248.8 440 248.2 441.2 C 247.5 442.3 246.1 444.5 245 445 C 243.9 445.5 242.8 445.1 241.6 444.4 C 240.4 443.7 238.8 442.1 238 441 C 237.3 439.9 237.2 439.2 237.1 437.9 C 236.9 435.1 237.3 427.6 236.9 424.1 C 236.6 421.2 236 418.7 235 417 C 234 415.3 232.8 414.5 231 414 C 229.2 413.5 225.3 413.5 224 414 C 222.8 414.5 223.9 416.1 223.2 417.2 C 222.4 418.5 219.5 419.6 219.1 422.1 C 218.4 426.6 219 439.9 219 444 C 219 445 218.9 445.7 219.5 446.5 C 220.1 447.4 222 448 222.7 449.3 C 223.4 450.6 222.6 452.9 223.8 454.2 C 225.1 455.4 228.6 455.7 230.1 456.9 C 231.6 458.1 231.8 460.2 232.8 461.2 C 233.8 462.1 234.6 462.5 236 462.6 C 238 462.8 242.4 461.9 244.6 462.4 C 246.7 463 248.7 463.8 249 466 C 249.8 471.5 248.4 489.4 249.6 495.2 C 250.3 498.6 254 499.6 256.4 500.6 C 258.8 501.6 261.9 501.1 264 501 C 266 500.9 267.5 500.5 268.8 499.8 C 270.1 499.1 270.8 497.5 271.8 496.8 C 272.9 496.2 273.9 496.3 275 496 C 275 480.7 275 465.3 275 450 C 276.8 448.8 278.4 447.1 280.4 446.4 C 282.4 445.7 284.3 446.4 286.8 445.8 C 289.4 445.2 293.7 444.1 296 443 C 298 442 299 440.5 300.2 439.2 C 301.3 437.8 302.1 436.7 302.9 434.9 C 303.6 433 304.8 430.9 304.9 428 C 304.9 423 303.4 409.2 303.3 404.9 C 303.2 403.7 304.4 403 304 402 C 303.6 401 302.3 399.8 301 399 C 299.7 398.2 297.8 397.2 296 397 C 294.2 396.8 291.8 396.8 290 398 C 288.2 399.2 285.9 401 285.4 404 C 284.7 408.1 286.4 418.8 285.7 422.7 C 285.3 425.3 282.9 426.7 281.6 427.6 C 280.4 428.4 279.1 428.8 278 428 C 276.9 427.2 275.3 425.3 275.1 422.9 C 274.5 415.8 274.9 392.2 274.6 385.4 C 274.5 383.9 273.8 383 273 382 C 272.2 381 271.2 379.8 269.5 379.5 C 267.3 379.1 261.7 379.1 259.6 379.6 Z M 698.4 378.4 C 700.1 378.2 701 377.9 702.6 378.4 C 704.3 378.9 706.4 379.8 708.6 381.4 C 711.3 383.5 715.4 386.6 719.2 390.8 C 723.4 395.2 729.4 402.6 733.6 408.4 C 737.8 414.2 740.7 419 744.3 425.7 C 748 432.3 751.5 439.1 755.6 448.4 C 759.7 457.8 764.1 468.5 768.9 482.1 C 775.2 500.1 789.6 543.1 793.6 556.4 C 794.2 558.6 793.2 560.1 793 562 C 770.9 547.5 741.7 528 726.6 518.4 C 717.2 512.4 709.9 508.4 702.6 504.4 C 695.2 500.5 690.7 498.1 682.6 494.4 C 673.6 490.4 657.4 483.8 648.6 480.4 C 641.2 477.5 637.5 476.1 629.9 474.1 C 620.3 471.7 598.3 467.7 591.2 465.8 C 589.2 465.3 586.1 464.8 587 463 C 588.8 459.3 595.7 450.5 601.8 443.8 C 607.8 437 616.4 428.6 623.3 422.3 C 630.1 415.9 636.8 410.5 642.8 405.8 C 648.8 401.2 653.7 397.9 659.4 394.4 C 665.1 390.9 671.7 387.5 677 385 C 682.3 382.5 687.8 380.5 691.4 379.4 C 694.1 378.6 696.5 378.6 698.4 378.4 Z M 502.4 471.4 C 514.9 470.7 534.6 470.7 543 471 C 546.9 471.2 549 471.8 552.6 473.4 C 557.5 475.5 565.5 479.3 572.2 483.8 C 578.9 488.3 587.6 495.9 592.7 500.3 C 597 504 599 506 602.7 510.3 C 607.6 515.9 615.5 524.7 622.2 533.8 C 628.9 542.9 636.4 554.2 643 565 C 649.5 575.8 654.5 584.9 661.6 598.4 C 671.1 616.9 690.5 656.9 700.4 675.6 C 708.1 689.9 714.5 698.8 721.5 710.4 C 721.3 711.3 722 712.5 721 713 C 719.8 713.6 716.8 714 714 714 C 660.5 714.2 453.2 714.2 400 714 C 398 714 396 714 395 713 C 394 712 394 710 394 708 C 393.8 695 394 659.3 394 635 C 401.8 633.8 411.8 632.8 417.3 631.3 C 421.6 630.2 424.3 628.3 427.2 626.2 C 430.1 624.1 432.6 621.4 434.6 618.6 C 436.7 615.8 438.3 612.7 439.5 609.5 C 440.8 606.4 441.7 603.9 441.9 599.9 C 442.3 592.3 442.3 571.3 441.9 564.1 C 441.8 560.9 441.1 558.9 439.6 556.4 C 438.1 553.9 435.1 550.6 433 549 C 430.9 547.5 428.8 547.5 426.8 547.2 C 424.8 546.9 423.2 546.6 421 547 C 418.9 547.5 415.9 548.3 413.8 549.8 C 411.7 551.4 409.7 554.2 408.4 556.4 C 407.2 558.7 406.4 560.4 406.2 563.2 C 405.7 569.6 405.9 588.9 405.6 594.6 C 405.5 595.8 404.9 596.4 404.1 597.1 C 403.4 597.9 402 598.5 401 599 C 400 599.5 398.9 600 398 600 C 397.1 600 396.4 599.9 395.8 599.2 C 395.2 598.3 394.1 596.8 394 595 C 393.7 585.8 394.3 554 394 544 C 393.9 540.3 393 537.6 392.1 534.9 C 391.2 532.1 390.3 529.7 388.6 527.4 C 387 525 384.5 522.5 382.2 520.8 C 379.9 519.1 376.8 518 374.6 517.4 C 372.4 516.8 371.2 516.9 369 517 C 366.5 517.2 362.1 517.4 359.4 518.4 C 356.7 519.4 354.8 521.1 352.8 522.8 C 350.8 524.5 348.9 526 347.4 528.4 C 346 530.8 344.3 533.5 344.2 537.2 C 343.6 552.3 344.1 604.8 344 619 C 344 620.3 343.8 621.3 343.3 622.3 C 342.8 623.3 342.3 624.6 341 625 C 339.7 625.4 337.2 625.3 335.4 624.6 C 333.6 623.9 331.8 622.2 330 621 C 329.9 610.1 330.3 594.9 329.8 588.2 C 329.6 585.1 328.6 583.1 327.2 580.8 C 325.7 578.6 323.6 576.2 321.2 574.8 C 318.8 573.4 315.7 572.4 312.9 572.3 C 310 572.1 306.6 572.7 304 574 C 301.4 575.4 298.8 578.8 297.4 580.4 C 296.4 581.5 296 582.1 295.5 583.5 C 294.9 584.9 294.2 586.8 294.1 589.1 C 293.8 596 293.7 617.3 294.1 624.9 C 294.3 628.9 295.2 631.5 296.4 634.6 C 297.6 637.7 299.5 641 301.4 643.6 C 303.3 646.2 305.3 648.2 307.8 650.2 C 310.3 652.2 313 654.2 316.4 655.6 C 319.8 657.1 323.6 658.4 328.1 658.9 C 332.5 659.5 340.4 658.7 343 659 C 343.6 659.1 343.6 659.8 343.6 660.4 C 343.7 668.4 344.1 698.2 344 707 C 344 709.4 344.5 711.8 343 713 C 341.5 714.2 338.2 714 335 714 C 287.5 714.2 105 714.2 58 714 C 56 714 53.9 713.6 53 713 C 52.1 712.4 52.4 711.3 52.7 710.3 C 53.4 707.7 55.3 702.4 57.4 697.4 C 59.5 692.4 61.7 686.8 65.4 680.4 C 69.1 674 74.4 665.9 79.8 658.8 C 85.2 651.7 92.7 643.2 97.8 637.8 C 102.3 632.7 104.7 630.3 109.9 625.9 C 116.2 620.4 126.5 611.8 135.8 604.8 C 145.1 597.8 156.6 589.8 165.8 583.8 C 175 577.9 180.7 574.6 191 569 C 202.7 562.7 225.3 551.3 236 546 C 243.6 542.3 247.5 540.6 255.4 537.4 C 266.1 533 285.1 525.1 300.4 519.4 C 315.7 513.7 332.6 508.1 347.4 503.4 C 362.2 498.7 374.2 495.1 389.2 491.2 C 404.2 487.3 424 482.9 437.2 480.2 C 449.5 477.7 457.2 476.5 468.1 475.1 C 478.9 473.6 489.9 472.1 502.4 471.4 Z"/>
  <path fill="#F08A2C" fill-rule="evenodd" d="M 335 317 C 337.6 316.9 345.9 317.9 351.6 319.4 C 357.3 320.8 363.5 323 369.3 325.7 C 375.2 328.3 380.4 331.3 386.6 335.4 C 392.8 339.5 399.2 343.7 406.7 350.3 C 414.8 357.3 427.7 370 435.2 377.8 C 442.4 385 445.6 389 452.2 396.8 C 459.2 405.1 470.2 418.8 477.2 427.8 C 484.2 436.8 490.5 445.7 494.2 450.8 C 496.4 453.8 498.7 456.7 499.5 458.5 C 500 459.4 499.8 460.4 499.1 461.1 C 498.5 461.9 497.3 462.6 495.8 462.8 C 492 463.3 483.9 463 476.1 464.1 C 464.9 465.6 437.6 470.8 428.9 471.9 C 426.9 472.2 425.2 472.6 424 471 C 421.1 467.3 415.9 458.4 411.4 449.6 C 405 436.8 392.9 409.4 385.6 394.4 C 378.6 380.4 372.1 368.4 367.2 359.8 C 363.2 352.8 361.2 349.2 356.2 342.8 C 351 336.2 339.3 324.5 335.8 320.2 C 335 319.2 333.7 317.1 335 317 Z M 723 377 C 725 376.9 729.2 377.5 732.8 378.2 C 736.4 378.9 741 380.2 744.6 381.4 C 748.2 382.7 750.6 383.9 754.3 385.7 C 758 387.5 762 389.4 766.6 392.4 C 771.3 395.4 777.1 399.6 782.2 403.8 C 787.3 408 792.5 413 797.2 417.8 C 802 422.5 805.7 426.4 810.7 432.3 C 815.7 438.1 822.4 446.5 827.2 452.8 C 832 459.2 835.1 463.1 839.6 470.4 C 845.7 480.2 856.1 496.8 863.6 511.4 C 871 526.1 878.9 544.3 884.5 558.5 C 890.2 572.6 894.1 585.1 897.6 596.4 C 901.1 607.7 903.5 617.2 905.6 626.4 C 907.8 635.5 909.6 645.5 910.5 651.3 C 911.1 655.1 911.5 659.6 911 661 C 910.5 662.4 908.5 660.8 907.3 659.7 C 905.1 657.8 901.9 653.1 897.7 649.3 C 889.8 641.9 874.1 627.5 859.7 615.3 C 845.3 603 820.8 585.7 811.4 575.6 C 805.3 569 806.3 563.1 803.4 554.6 C 797.8 538.2 784.4 495.6 777.9 477.1 C 773.1 463.5 768.5 453 764.3 443.7 C 760.2 434.4 756.3 427.1 753 421 C 749.9 415.4 748.2 412.6 744.6 407.4 C 741 402.2 735.1 394.5 731.2 389.8 C 727.4 385.2 722.4 381.1 721 379 C 720.4 378 721.9 377.1 723 377 Z M 577 474 C 578.3 473.6 582.3 473.6 585.8 474.2 C 592.1 475.2 605.7 477.9 614.8 480.2 C 623.9 482.4 632.7 485.1 640.4 487.6 C 648 490.2 652.7 491.9 660.6 495.4 C 670 499.5 682.6 504.8 696.6 512.4 C 711.1 520.4 736 536.2 747.6 543.4 C 755.2 548.1 758.9 550.6 766.2 555.8 C 776.3 563 794.3 576.1 808.2 586.8 C 822.1 597.5 836.1 608.6 849.7 620.3 C 863.4 631.9 878.5 645.7 890.2 656.8 C 902 667.8 911.6 677.7 920.2 686.8 C 928.9 695.8 934.7 702.9 942 711 C 941.2 711.8 940.5 713 939.5 713.5 C 938.5 714 937.4 714 936 714 C 902.9 714.1 774.2 714.1 741 714 C 739.3 714 738.1 714.3 736.8 713.2 C 734.7 711.4 731.3 707.8 728.4 703.6 C 725.1 698.9 721.3 692.6 717 685 C 712 676.1 705.6 664.5 698.4 650.6 C 689.2 632.6 671.7 596.1 661.6 577.4 C 652.8 561.3 643.5 547.5 637.6 538.4 C 633.4 531.9 630.3 528 626.2 522.8 C 622 517.6 617.8 512.7 612.7 507.3 C 607.7 501.8 601.5 495.4 595.7 490.3 C 590 485.2 581.4 479.4 578.3 476.7 C 577.4 475.9 575.9 474.4 577 474 Z"/>
  <path fill="#2F6B3A" fill-rule="evenodd" d="M 259.6 379.6 C 261.7 379.1 267.3 379.1 269.5 379.5 C 271.2 379.8 272.2 381 273 382 C 273.8 383 274.5 383.9 274.6 385.4 C 274.9 392.2 274.5 415.8 275.1 422.9 C 275.3 425.3 276.9 427.2 278 428 C 279.1 428.8 280.4 428.4 281.6 427.6 C 282.9 426.7 285.2 425.2 285.7 422.7 C 286.5 419 285.6 408.1 286 405 C 286.1 404 287.7 404.9 288.4 404.4 C 289 403.9 288.9 402.5 290 402 C 291.3 401.4 293.8 400.7 296 401 C 298.2 401.3 301.7 402.7 303 404 C 304.3 405.3 303.9 407 304 409 C 304.1 412.3 304.8 419.1 303.7 423.7 C 302.7 428.3 299.8 433.1 297.6 436.6 C 295.4 440.1 293.4 442.9 290.5 444.5 C 287.7 446.2 283 445.5 280.4 446.4 C 278 447.3 276.8 448.8 275 450 C 275 465.3 275 480.7 275 496 C 273.9 496.3 272.9 496.2 271.8 496.8 C 270.8 497.5 270.1 499.1 268.8 499.8 C 267.5 500.5 266 500.9 264 501 C 261.9 501.1 258.8 501.6 256.4 500.6 C 254 499.6 250.3 498.6 249.6 495.2 C 248.4 489.4 249.8 471.5 249 466 C 248.7 463.8 246.7 463 244.6 462.4 C 242.4 461.9 238 462.8 236 462.6 C 234.6 462.5 233.8 462.1 232.8 461.2 C 231.8 460.2 231.6 458.1 230.1 456.9 C 228.6 455.7 225.1 455.4 223.8 454.2 C 222.6 452.9 223.4 450.6 222.7 449.3 C 222 448 220.1 447.4 219.5 446.5 C 218.9 445.7 219 445 219 444 C 219 439.9 218.4 426.6 219.1 422.1 C 219.5 419.6 222.4 418.5 223.2 417.2 C 223.9 416.1 222.8 414.5 224 414 C 225.3 413.5 229.2 413.5 231 414 C 232.8 414.5 234 415.3 235 417 C 236 418.7 236.6 421.2 236.9 424.1 C 237.3 427.6 236.9 435.1 237.1 437.9 C 237.2 439.2 237.3 439.9 238 441 C 238.8 442.1 240.4 443.7 241.6 444.4 C 242.8 445.1 243.9 445.5 245 445 C 246.1 444.5 247.5 442.3 248.2 441.2 C 248.8 440 249 439.3 249 438 C 249.2 429.8 248.8 401.1 249.2 392.2 C 249.3 389 250.1 386.1 251.4 384.4 C 252.7 382.7 255.8 383 257.2 382.2 C 258.4 381.5 258.2 379.9 259.6 379.6 Z M 363.4 523.4 C 366.4 522.4 370.5 522.8 372.9 523.1 C 375.1 523.3 376.3 523.9 378 525 C 379.7 526.1 381.8 527.9 383.2 529.8 C 384.6 531.7 385.8 534.2 386.6 536.4 C 387.4 538.6 387.9 540.3 388 543 C 388.2 554.5 388 584.3 388 605 C 390.3 605.3 392.5 605.9 395 605.9 C 397.5 605.8 400.7 605.3 402.8 604.8 C 404.8 604.3 406.4 603.5 407.6 602.6 C 408.8 601.7 409.5 600.8 410.2 599.2 C 410.9 597.4 411.8 594.9 412 592 C 412.3 586 411.4 569.1 412.1 563.1 C 412.4 559.8 414.3 557.5 415.9 555.9 C 417.4 554.2 419.2 553.6 421.2 553.2 C 423.2 552.8 425.5 552.7 427.6 553.4 C 429.7 554.1 432.3 555.7 433.7 557.3 C 435.1 558.9 435.8 560.6 435.9 563.1 C 436.3 570.2 436.3 592.3 435.9 599.9 C 435.7 603.5 434.7 605.9 433.6 608.6 C 432.5 611.3 431.6 613.6 429.2 616.2 C 426.8 618.8 422 622.5 419.2 624.2 C 416.8 625.7 415.2 625.9 412.6 626.6 C 410 627.3 407.4 628.1 403.8 628.4 C 399.7 628.8 393.3 628.8 388 629 C 388 656.3 388.1 696.8 387.9 710.9 C 387.9 712.2 387.8 713.3 387 714 C 386.2 714.7 384.6 714.9 382.9 714.9 C 377.6 715.1 360.5 715.3 355 715 C 352.9 714.9 351 714 350 713 C 349 712 349.3 710.7 349.3 709.1 C 349.3 701.8 350 678 350 669 C 350 663.4 349.7 657.7 349 655 C 348.6 653.6 347.4 653.2 345.9 653.1 C 342.3 652.7 332.6 653.7 327.2 652.8 C 321.8 651.9 316.8 649.5 313.4 647.6 C 310.2 645.8 308.5 643.2 306.8 641.2 C 305.1 639.2 304.4 638 303.4 635.6 C 302.3 632.9 300.4 629.4 300.1 624.9 C 299.5 617 299.8 595.1 300.2 588.2 C 300.3 586.1 301.5 584.7 302.4 583.4 C 303.2 582.1 303.8 581.1 305.3 580.3 C 306.9 579.4 309.6 578 311.9 578.1 C 314.3 578.2 317.3 579.4 319.2 580.8 C 321.1 582.2 322.1 584.5 323.6 586.4 C 323.8 597.2 323.7 612.6 324.1 618.9 C 324.2 621.1 324.9 622.6 325.8 624.2 C 326.8 625.7 328.6 627.3 329.8 628.2 C 331 629.1 331.7 629.7 333.2 629.8 C 336.4 630.1 346.2 631 349 630 C 351.3 629.2 350 626.4 350 624 C 350 620.8 349.1 615 349.1 611 C 349.1 607 349.9 604.4 350 600 C 350.1 588 349.3 550.9 350.1 539.1 C 350.4 534.6 352.6 531.4 354.8 528.8 C 357 526.2 360.4 524.3 363.4 523.4 Z"/>
  <path fill="#26292E" fill-rule="evenodd" d="M 318.4 305.4 C 321.8 305.1 323.5 304.8 326.9 305.1 C 331.2 305.4 339.2 306.5 343.8 307.2 C 348.2 307.9 350.4 308.2 354.6 309.4 C 358.8 310.5 363.5 311.9 368.9 314.1 C 374.3 316.4 381.1 319.6 387 323 C 392.9 326.5 397.8 329.9 404.2 334.8 C 410.6 339.8 417.3 345.1 425.2 352.8 C 433.5 360.7 444.7 372.3 453.7 382.3 C 462.7 392.3 470 401 479.2 412.8 C 488.4 424.6 503.4 444.8 509.2 452.8 C 511.4 455.9 513 459.6 514 461 C 514.3 461.5 514.8 461.5 515.4 461.5 C 519.7 461.5 530.6 460.8 540 461 C 549.3 461.2 561 462 571.5 462.5 C 580.9 451.6 592.6 437.6 599.8 429.8 C 605.3 423.7 608.6 420.4 614.3 415.3 C 619.9 410.1 626.2 404.4 633.8 398.8 C 641.4 393.2 652.9 385.7 659.7 381.7 C 665.3 378.3 669.4 376.4 674.4 374.4 C 679.3 372.3 683.3 370.8 689.4 369.4 C 695.5 368 705.8 366.6 711 366 C 715 365.6 717 365.7 720.9 366.1 C 725.1 366.4 730.2 366.8 735.8 368.2 C 741.4 369.6 749.1 372.2 754.6 374.4 C 760.1 376.6 763.5 378.3 768.6 381.4 C 773.7 384.5 779.8 388.7 785.2 392.8 C 790.5 397 794.9 400.5 800.7 406.3 C 807.4 412.9 818 424.3 825.2 432.8 C 832.3 441.3 838.5 450.3 843.6 457.4 C 848.6 464.4 851.1 468 855.6 475.4 C 860.3 483.2 866.2 492.6 872 504 C 877.8 515.4 884.9 530.9 890.2 543.6 C 895.5 556.3 899.3 565.3 903.8 580.2 C 908.5 595.8 915.1 621 918.6 637 C 922 652.5 919.1 664.7 924.7 676.3 C 930.3 687.9 946.4 700.2 952.2 706.8 C 955.2 710.2 957.9 713.6 959.2 715.8 C 960 717.3 960.6 718.8 960 720 C 959.4 721.2 957 722.6 955.3 723.3 C 953.6 724 952.1 724 950 724 C 798.9 724.1 199.8 724 49 724 C 47.5 724 46.5 724.1 45.2 723.8 C 43.9 723.5 41.7 723.7 41 722 C 40.3 720.2 40.8 715.5 41.1 713.1 C 41.3 710.7 41.6 709.6 42.4 707.4 C 44.4 701.8 49.4 687.6 53.4 679.4 C 57.4 671.3 62.2 664.5 66.4 658.4 C 70.6 652.2 75.9 650.1 78.5 642.5 C 81.7 633.7 82.9 616 85.2 605.2 C 87.5 594.3 89.2 588.2 92.4 577.4 C 95.6 566.6 100.9 550.4 104.4 540.4 C 107.7 531.1 109.4 526.4 113.4 517.4 C 118.8 505.3 128.3 483.5 136.7 467.7 C 145 451.8 153.5 437.1 163.4 422.4 C 173.3 407.7 188.4 389 196.3 379.3 C 201.6 372.7 204.7 369.7 210.9 363.9 C 217.8 357.3 229.2 346.6 237.8 339.8 C 246.4 333.1 255.4 327.6 262.4 323.4 C 269 319.4 272.7 317.4 279.7 314.7 C 286.7 312 297.7 308.7 304.2 307.2 C 309.8 305.9 314.6 305.7 318.4 305.4 Z M 308.4 317.4 C 305.3 318.1 298.6 319.3 293.1 321.1 C 287.6 323 280.8 325.8 275.4 328.4 C 270.1 331.1 266.4 333 260.8 336.8 C 254.4 341.2 242.4 350.4 236.8 354.8 C 232.8 358 230.9 359.6 227.3 363.3 C 222 368.5 211.2 379.8 205.3 386.3 C 199.7 392.3 196.8 395.5 191.8 401.8 C 186.8 408.2 180.7 416.6 175.4 424.4 C 170.1 432.2 164.9 440.4 159.8 448.8 C 154.7 457.2 150.4 464.6 145 475 C 139.6 485.5 133.1 498.6 127.5 511.5 C 121.9 524.4 115.3 541.8 111.5 552.5 C 108.2 561.5 106.8 567.3 104.4 575.4 C 102 583.5 99.2 593.4 97.2 601.2 C 95.2 609 93.3 618.2 92.6 622.2 C 92.4 623.3 92.4 624.7 93 625 C 93.6 625.3 95.2 625 96.2 624.2 C 100.1 621 110.4 611.2 116.8 605.8 C 123.2 600.4 127.4 597.1 134.8 591.8 C 142.4 586.4 152.5 579.5 162.4 573.4 C 172.3 567.3 181.5 561.7 194 555 C 206.5 548.4 220.9 540.9 237.4 533.4 C 254 526 274.6 517.4 293.4 510.4 C 312.2 503.4 336.1 495.9 350.4 491.4 C 361.8 487.8 369.6 485.6 379.2 483.2 C 388.7 480.7 402 478.3 407.6 476.6 C 410.1 475.8 411.2 474.2 413 473 C 407.1 462.5 401.8 454.5 395.4 441.6 C 387.8 426.1 374.4 394.8 367 380 C 361.4 368.8 355.3 359.4 351.2 352.8 C 348 347.8 346 345.3 342.2 340.8 C 338.4 336.3 332.5 329.5 328.2 325.8 C 324.1 322.2 319.3 319.8 316.6 318.4 C 314.9 317.5 313.3 317.2 311.9 317.1 C 310.6 316.9 309.8 317.1 308.4 317.4 Z M 335 317 C 333.4 317.1 335.3 319.5 336.3 320.7 C 338.2 323.1 343.4 327.6 346.7 331.3 C 350.1 334.9 352.8 338 356.2 342.8 C 359.6 347.6 363.2 352.8 367.2 359.8 C 372.1 368.4 378.6 380.4 385.6 394.4 C 392.9 409.4 405 436.8 411.4 449.6 C 415.9 458.4 421.1 467.3 424 471 C 425.2 472.6 426.9 472.2 428.9 471.9 C 437.6 470.8 464.9 465.6 476.1 464.1 C 483.9 463 492 463.3 495.8 462.8 C 497.3 462.6 498.5 461.9 499.1 461.1 C 499.8 460.4 500 459.4 499.5 458.5 C 498.7 456.7 496.4 453.8 494.2 450.8 C 490.5 445.7 484.2 436.8 477.2 427.8 C 470.2 418.8 459.2 405.1 452.2 396.8 C 445.6 389 442.4 385 435.2 377.8 C 427.7 370 414.8 357.3 406.7 350.3 C 399.2 343.7 392.8 339.5 386.6 335.4 C 380.4 331.3 375.2 328.3 369.3 325.7 C 363.5 323 357.3 320.8 351.6 319.4 C 345.9 317.9 337.6 316.8 335 317 Z M 723.4 377.4 C 722.2 377.4 720.4 378 721 379 C 722.3 381.1 727.4 385.2 731.2 389.8 C 735.1 394.5 741 402.2 744.6 407.4 C 748.2 412.6 749.9 415.4 753 421 C 756.3 427.1 760.2 434.4 764.3 443.7 C 768.5 453 773.1 463.5 777.9 477.1 C 784.4 495.6 797.8 538.2 803.4 554.6 C 806.3 563.1 805.3 569 811.4 575.6 C 820.8 585.7 845.3 603 859.7 615.3 C 874.1 627.5 889.8 641.9 897.7 649.3 C 901.9 653.1 905.1 657.8 907.3 659.7 C 908.5 660.8 910.5 662.4 911 661 C 911.5 659.6 911.1 655.1 910.5 651.3 C 909.6 645.5 907.8 635.5 905.6 626.4 C 903.5 617.2 901.1 607.7 897.6 596.4 C 894.1 585.1 890.2 572.6 884.5 558.5 C 878.9 544.3 871 526.1 863.6 511.4 C 856.1 496.8 845.7 480.2 839.6 470.4 C 835.1 463.1 832 459.2 827.2 452.8 C 822.4 446.5 815.7 438.1 810.7 432.3 C 805.7 426.4 802 422.5 797.2 417.8 C 792.5 413 787.3 408 782.2 403.8 C 777.1 399.6 771.3 395.4 766.6 392.4 C 762 389.4 758 387.5 754.3 385.7 C 750.6 383.9 748 382.6 744.6 381.4 C 741.1 380.2 737.1 379.1 733.6 378.4 C 730.1 377.7 725.5 377.3 723.4 377.4 Z M 698.4 378.4 C 696.5 378.6 694.1 378.6 691.4 379.4 C 687.8 380.5 682.3 382.5 677 385 C 671.7 387.5 665.1 390.9 659.4 394.4 C 653.7 397.9 648.8 401.2 642.8 405.8 C 636.8 410.5 630.1 415.9 623.3 422.3 C 616.4 428.6 607.8 437 601.8 443.8 C 595.7 450.5 588.8 459.3 587 463 C 586.1 464.8 589.2 465.3 591.2 465.8 C 598.3 467.7 620.3 471.7 629.9 474.1 C 637.5 476.1 641.2 477.5 648.6 480.4 C 657.4 483.8 673.6 490.4 682.6 494.4 C 690.7 498.1 695.2 500.5 702.6 504.4 C 709.9 508.4 717.2 512.4 726.6 518.4 C 741.7 528 770.9 547.5 793 562 C 793.2 560.1 794.2 558.6 793.6 556.4 C 789.6 543.1 775.2 500.1 768.9 482.1 C 764.1 468.5 759.7 457.8 755.6 448.4 C 751.5 439.1 748 432.3 744.3 425.7 C 740.7 419 737.8 414.2 733.6 408.4 C 729.4 402.6 723.4 395.2 719.2 390.8 C 715.4 386.6 711.3 383.5 708.6 381.4 C 706.4 379.8 704.3 378.9 702.6 378.4 C 701 377.9 700.1 378.2 698.4 378.4 Z M 292 397 C 293.5 397 297 397.2 299 398 C 301 398.8 303.6 401 304 402 C 304.4 403 302.5 403.8 301.1 403.7 C 299.5 403.6 295.7 401.4 294.1 401.1 C 292.8 400.9 292.1 401.4 291 402 C 290 402.6 288.8 404.4 287.8 404.7 C 286.7 405 284.6 405.1 285 404 C 285.4 402.9 288.8 399.2 290 398 C 290.6 397.4 291.1 397 292 397 Z M 302.5 425.6 C 302.8 425 303.7 425.5 304.1 425.9 C 304.5 426.3 305 427.1 304.9 428 C 304.6 429.6 303.7 433.3 302.6 435.6 C 301.4 437.8 299.3 440.3 297.7 441.7 C 296.2 443.1 293.9 444 293 444 C 292.1 444 292.1 442.4 292.6 441.6 C 293.7 439.9 297.5 436.9 299.2 434.2 C 300.8 431.5 301.7 427 302.5 425.6 Z M 502.4 471.4 C 489.9 472.1 478.9 473.6 468.1 475.1 C 457.2 476.5 449.5 477.7 437.2 480.2 C 424 482.9 404.2 487.3 389.2 491.2 C 374.2 495.1 362.2 498.7 347.4 503.4 C 332.6 508.1 315.7 513.7 300.4 519.4 C 285.1 525.1 266.1 533 255.4 537.4 C 247.5 540.6 243.6 542.3 236 546 C 225.3 551.3 202.7 562.7 191 569 C 180.7 574.6 175 577.9 165.8 583.8 C 156.6 589.8 145.1 597.8 135.8 604.8 C 126.5 611.8 116.2 620.4 109.9 625.9 C 104.7 630.3 102.3 632.7 97.8 637.8 C 92.7 643.2 85.2 651.7 79.8 658.8 C 74.4 665.9 69.1 674 65.4 680.4 C 61.7 686.8 59.5 692.4 57.4 697.4 C 55.3 702.4 53.4 707.7 52.7 710.3 C 52.4 711.3 52 712.5 53 713 C 54.2 713.6 57.2 714 60 714 C 107.3 714.2 289.8 714.2 337 714 C 339.4 714 341.8 714 343 713 C 344.2 712 343.9 710 344 708 C 344.1 699.1 344 676 344 660 C 343 659.7 342.2 659.2 340.9 659.1 C 338.1 658.9 331.3 659.4 327.2 658.8 C 323.1 658.2 319.6 657 316.4 655.6 C 313.2 654.2 310.3 652.2 307.8 650.2 C 305.3 648.2 303.3 646.2 301.4 643.6 C 299.5 641 297.6 637.7 296.4 634.6 C 295.2 631.5 294.3 628.9 294.1 624.9 C 293.7 617.3 293.8 596 294.1 589.1 C 294.2 586.8 294.9 584.9 295.5 583.5 C 296 582.1 296.4 581.5 297.4 580.4 C 298.8 578.8 301.4 575.4 304 574 C 306.6 572.7 310 572.1 312.9 572.3 C 315.7 572.4 318.8 573.4 321.2 574.8 C 323.6 576.2 325.7 578.6 327.2 580.8 C 328.6 583.1 329.6 585.1 329.8 588.2 C 330.3 594.9 329.9 610.1 330 621 C 331.8 622.2 333.6 623.9 335.4 624.6 C 337.2 625.3 339.7 625.4 341 625 C 342.3 624.6 342.8 623.3 343.3 622.3 C 343.8 621.3 344 620.3 344 619 C 344.1 604.8 343.6 552.3 344.2 537.2 C 344.3 533.5 346 530.8 347.4 528.4 C 348.9 526 350.8 524.5 352.8 522.8 C 354.8 521.1 356.9 519.4 359.4 518.4 C 361.9 517.4 365.5 517.2 368 517 C 370.5 516.8 372.2 516.8 374.6 517.4 C 377 518 379.9 519.2 382.2 520.8 C 384.5 522.4 386.6 524.6 388.2 526.8 C 389.8 529 390.9 531.3 391.9 534.1 C 392.8 537 393.8 540 394 544 C 394.4 554.3 393.8 586.7 394.1 595.9 C 394.1 597.4 395.2 598.5 395.8 599.2 C 396.5 599.8 397.1 600 398 600 C 398.9 600 400 599.5 401 599 C 402 598.5 403.4 597.9 404.1 597.1 C 404.9 596.4 405.5 595.8 405.6 594.6 C 405.9 588.9 405.7 569.6 406.2 563.2 C 406.4 560.4 407.2 558.7 408.4 556.4 C 409.7 554.2 411.9 551.4 413.8 549.8 C 415.8 548.3 418.1 547.5 420.1 547.1 C 422.1 546.6 423.9 546.8 425.9 547.1 C 428 547.3 430.6 547.9 432.3 548.7 C 434 549.5 435 550.5 436.2 551.8 C 437.5 553 438.7 554.5 439.6 556.4 C 440.5 558.3 441.7 560.3 441.8 563.2 C 442.2 570.5 442.3 592.2 441.9 599.9 C 441.7 603.9 440.8 606.4 439.5 609.5 C 438.3 612.7 436.7 615.8 434.6 618.6 C 432.6 621.4 430.1 624.1 427.2 626.2 C 424.3 628.3 421 630 417.3 631.3 C 413.6 632.6 408.6 633.5 404.9 633.9 C 401.2 634.4 396.7 633.7 395 634 C 394.4 634.1 394.4 634.8 394.4 635.4 C 394.3 647.8 393.9 695.1 394 708 C 394 710 393.7 712 395 713 C 396.3 714 399.2 714 402 714 C 455.5 714.2 662.8 714.2 716 714 C 718 714 720.1 713.6 721 713 C 721.9 712.4 721.3 711.3 721.5 710.4 C 714.5 698.8 708.1 689.9 700.4 675.6 C 690.5 656.9 671.1 616.9 661.6 598.4 C 654.5 584.9 649.5 575.8 643 565 C 636.4 554.2 628.9 542.9 622.2 533.8 C 615.5 524.7 607.6 515.9 602.7 510.3 C 599 506 597 504 592.7 500.3 C 587.6 495.9 578.9 488.3 572.2 483.8 C 565.5 479.3 557.5 475.5 552.6 473.4 C 549 471.8 546.9 471.2 543 471 C 534.6 470.7 514.9 470.7 502.4 471.4 Z M 577.6 474.5 C 577.3 474.6 576.9 474.7 577 475 C 577.1 475.4 577.6 476.2 578.3 476.7 C 581.4 479.3 590 485.2 595.7 490.3 C 601.5 495.4 607.7 501.8 612.7 507.3 C 617.8 512.7 621.4 516.6 626.2 522.8 C 631 529 636 535.4 641.6 544.4 C 648.9 556.1 660.5 575.3 670 593 C 679.5 610.7 690.6 635.2 698.4 650.6 C 705.6 664.5 712 676.1 717 685 C 721.3 692.6 725.1 698.9 728.4 703.6 C 731.3 707.8 734.7 711.4 736.8 713.2 C 738.1 714.3 739.3 714 741 714 C 774.2 714.1 902.9 714.1 936 714 C 937.4 714 938.5 714 939.5 713.5 C 940.5 713 941.2 711.8 942 711 C 934.7 702.9 928.9 695.8 920.2 686.8 C 911.6 677.7 902 667.8 890.2 656.8 C 878.5 645.7 863.4 631.9 849.7 620.3 C 836.1 608.6 822.1 597.5 808.2 586.8 C 794.3 576.1 776.3 563 766.2 555.8 C 758.9 550.6 755.2 548.1 747.6 543.4 C 736 536.2 711.1 520.4 696.6 512.4 C 682.6 504.8 670 499.5 660.6 495.4 C 652.7 491.9 648 490.2 640.4 487.6 C 632.7 485.1 623.9 482.4 614.8 480.2 C 605.7 477.9 592 475.1 585.8 474.2 C 582.6 473.7 579.1 474.4 577.6 474.5 Z M 363.4 523.4 C 360.4 524.3 357 526.2 354.8 528.8 C 352.6 531.4 350.4 534.6 350.1 539.1 C 349.3 550.9 350.1 588 350 600 C 349.9 604.4 349.1 607 349.1 611 C 349.1 615 350 620.8 350 624 C 350 626.4 351.3 629.2 349 630 C 346.2 631 336.4 630.1 333.2 629.8 C 331.7 629.7 331 629.1 329.8 628.2 C 328.6 627.3 326.8 625.7 325.8 624.2 C 324.9 622.6 324.2 621.1 324.1 618.9 C 323.7 612.6 323.8 597.2 323.6 586.4 C 322.1 584.5 321.1 582.2 319.2 580.8 C 317.3 579.4 314.3 578.2 311.9 578.1 C 309.6 578 306.9 579.4 305.3 580.3 C 303.8 581.1 303.2 582.1 302.4 583.4 C 301.5 584.7 300.3 586.1 300.2 588.2 C 299.8 595.1 299.5 617 300.1 624.9 C 300.4 629.4 302.3 632.9 303.4 635.6 C 304.4 638 305.1 639.2 306.8 641.2 C 308.5 643.2 310.2 645.8 313.4 647.6 C 316.8 649.5 321.8 651.9 327.2 652.8 C 332.6 653.7 342.3 652.7 345.9 653.1 C 347.4 653.2 348.6 653.6 349 655 C 349.7 657.7 350 663.4 350 669 C 350 678 349.3 701.8 349.3 709.1 C 349.3 710.7 349 712 350 713 C 351 714 352.9 714.9 355 715 C 360.5 715.3 377.6 715.1 382.9 714.9 C 384.6 714.9 386.2 714.7 387 714 C 387.8 713.3 387.9 712.2 387.9 710.9 C 388.1 696.8 388 656.3 388 629 C 393.3 628.8 399.7 628.8 403.8 628.4 C 407.4 628.1 410 627.3 412.6 626.6 C 415.2 625.9 416.8 625.7 419.2 624.2 C 422 622.5 426.8 618.8 429.2 616.2 C 431.6 613.6 432.5 611.3 433.6 608.6 C 434.7 605.9 435.7 603.5 435.9 599.9 C 436.3 592.3 436.3 570.2 435.9 563.1 C 435.8 560.6 435.1 558.9 433.7 557.3 C 432.3 555.7 429.7 554.1 427.6 553.4 C 425.5 552.7 423.2 552.8 421.2 553.2 C 419.2 553.6 417.4 554.2 415.9 555.9 C 414.3 557.5 412.4 559.8 412.1 563.1 C 411.4 569.1 412.3 586 412 592 C 411.8 594.9 410.9 597.4 410.2 599.2 C 409.5 600.8 408.8 601.7 407.6 602.6 C 406.4 603.5 404.8 604.3 402.8 604.8 C 400.7 605.3 397.5 605.8 395 605.9 C 392.5 605.9 390.3 605.3 388 605 C 388 584.3 388.2 554.5 388 543 C 387.9 540.3 387.4 538.6 386.6 536.4 C 385.8 534.2 384.6 531.7 383.2 529.8 C 381.8 527.9 379.7 526.1 378 525 C 376.3 523.9 375.1 523.3 372.9 523.1 C 370.5 522.8 366.4 522.4 363.4 523.4 Z"/>
</svg>
