<svg xmlns="http://www.w3.org/2000/svg" viewBox="0 0 1000 1000" width="1000" height="1000">
  <path d="M 859 240 C 859.2 240.8 860 243 860 245 C 860.1 274.3 859.7 358.7 859.6 415.6 C 858.7 416.4 857.4 417.6 857 418 C 852.3 410.6 833.6 381.1 828.6 373.4 C 828.1 372.6 827.7 372.2 827 371.8 C 826.3 371.4 825.5 371.1 824.4 371.1 C 737.4 371 392.2 370.9 305 371 C 303.5 371 302.2 371.3 301.3 371.6 C 300.6 371.8 300.3 372.1 299.9 372.6 C 294.4 380.5 273.3 411.3 268 419 C 267.8 418.7 266.8 417.9 266.6 417 C 266.2 415.6 266 413.2 266 410.7 C 266 403.8 266.7 383.2 266.7 375.9 C 266.7 372.3 266 369.7 266 367 C 266.1 364.4 267 362.3 267 360 C 267 357.7 266 355.8 266 353 C 266 349.2 267 342 267 337 C 267 332 266 327.3 266 323 C 266 318.7 267 314.7 267 311 C 267 307.3 266.1 305 266 301 C 265.8 289.3 266 261 266 241 C 266.3 240.7 266.7 240.3 267 240 C 464.3 240 760.3 240 859 240 Z M 289 351 C 289.6 351.3 291.1 352.8 292.8 352.8 C 383.1 353.1 740.3 353.2 831 353 C 833.3 353 835.3 352.3 836.7 351.7 C 838 351.1 838.4 350 839.3 349.1 C 839.3 320.2 839.6 277.1 839.4 262.3 C 839.4 261.3 838.8 260.7 838.3 260.1 C 837.8 259.6 837.2 259 836.3 259 C 745.2 258.9 382.5 259.2 291.4 259.4 C 290.8 259.4 290.3 259.5 290 260 C 289.6 260.8 289 262.4 289 264 C 288.8 279.2 289 336.5 289 351 Z M 776 456 C 779 458.7 789.3 468.8 793.9 472.3 C 797.2 474.8 800.2 475.6 803.3 476.8 C 806.4 478 809.3 478.9 812.7 479.5 C 816 480 820.1 480.1 823.4 480.1 C 826.6 480.1 828.7 480.2 832 479.3 C 835.7 478.4 841.5 476.2 845.7 474.2 C 849.9 472.2 855 468.4 857.2 467.2 C 857.8 466.8 858.6 467 858.8 466.9 C 859 467.1 859.4 467.7 859.7 468.1 C 859.8 576.7 859.9 739.7 860 794 C 859.3 794.2 857.6 794.9 856 795 C 853.3 795.2 846.8 795.2 844 795.2 C 842 795.2 840 795.2 839 795 C 838.4 794.9 838.4 794.2 838.1 793.9 C 838 694.2 838 544.8 838 495 C 837.2 494.8 835 494 833 494 C 802.8 493.8 686.3 494 657 494 C 656.8 494.8 656 497 656 499 C 655.8 549 656 744.8 656 794 C 655 794.2 652.4 795 650 795 C 585.2 795.2 330.8 795 267 795 C 266.8 793.9 266.2 791.2 266 788.7 C 265.8 785.6 266 781.5 266 776.7 C 266 740.8 265.8 607.9 266 573 C 266 570.6 266.9 569.4 266.9 567 C 266.9 562.7 266 552 266 547 C 266 543 267 541 267 537 C 267 532.3 266 525.9 266 519 C 266 512.1 267 501.7 267 495.5 C 267 490.1 266 486.6 266 482 C 266 477.4 267 470 267.2 467.7 C 269 468.7 273.9 472 277.6 473.9 C 281.4 475.8 286.4 478 289.9 479.1 C 293.1 480 295 480 298.3 480.1 C 301.7 480.3 306 480.5 309.8 479.8 C 313.6 479.2 317.6 477.7 321.1 476.3 C 324.6 474.9 327.5 473.3 330.5 471.5 C 333.5 469.6 336.6 467.5 339 465.3 C 341.3 463.1 343.5 459.6 344.7 458.3 C 345.1 457.8 345.5 457.6 346.1 457.7 C 346.7 457.9 347.7 458.5 348.5 459.3 C 350 460.9 352.2 464.8 355 467.4 C 357.9 469.9 361.2 472.6 365.4 474.6 C 369.6 476.6 376 478.6 380 479.5 C 383.7 480.4 386.1 480.4 389.4 480.2 C 392.6 480.1 395.6 479.9 399.5 478.7 C 403.4 477.5 408.8 475.4 412.7 473.2 C 416.5 471 419.7 468.2 422.6 465.5 C 425.6 462.7 429.2 458.2 430.5 456.8 C 432.1 458.5 436.2 463.7 439.7 466.8 C 443.2 469.9 447.9 473.3 451.8 475.4 C 455.7 477.5 459 478.6 463.2 479.4 C 467.4 480.2 472.9 480.4 476.9 480.2 C 481 479.9 483.4 479.5 487.4 478 C 491.6 476.5 498.2 473.1 501.7 471.1 C 504.5 469.6 505.9 468.6 508.2 466.3 C 510.5 463.9 514.5 458.4 515.7 456.8 C 517.8 458.9 525 466.7 528 469.5 C 530 471.4 531.1 472.4 533.7 473.5 C 537.1 475.1 544.2 477.9 548.5 479 C 552.9 480.1 556 480.3 559.9 480.3 C 563.8 480.3 568.1 479.8 572 478.8 C 576 477.7 580.1 476 583.6 474 C 587.1 472.1 590.3 469.5 592.9 467.3 C 595.6 465.1 598.1 462.5 599.5 460.8 C 600.6 459.6 601 458.1 601.5 457.4 C 601.9 456.9 602.3 456.7 602.9 456.8 C 603.7 457.1 605.2 457.8 606.4 458.9 C 608.5 461 612.9 466.7 615.8 469.3 C 618.6 471.9 620.5 472.8 623.7 474.4 C 627 476.1 631.2 478.2 635.3 479.2 C 639.4 480.1 643.9 480.3 648 480.2 C 652.1 480.1 655.9 479.6 659.9 478.5 C 663.8 477.4 668.1 475.5 671.6 473.5 C 675.1 471.4 678 469.1 681 466.3 C 684 463.6 688 458.4 689.5 456.9 C 691.5 458.8 697.9 465.1 701.8 468.2 C 705.7 471.3 709.2 473.5 712.6 475.2 C 715.9 477 718.5 478 722.1 478.8 C 725.7 479.7 730.2 480.4 734.3 480.3 C 738.4 480.2 743 479.2 746.8 478.1 C 750.7 477.1 753.7 476.1 757.4 473.9 C 761.1 471.8 766.3 468.2 769 465.4 C 771.6 462.7 772.2 458.8 773.4 457.2 C 774.1 456.3 775.6 456.2 776 456 Z M 293 495 C 292.8 497.3 292 505 292 509 C 292 513 293 515 293 519 C 293 524.8 292 537.7 292 544 C 292 549.1 293 551.6 293.1 556.6 C 293.2 565.1 293.2 587.6 293 595 C 292.9 597.4 292.1 598.9 292.1 600.9 C 292.1 602.9 293 604.5 293 607 C 293.1 622.3 292.8 678.1 293 693 C 293 694.4 293.3 695.6 294.3 696.2 C 295.4 696.9 297.3 697 299.4 697 C 303.7 697 312.2 696 320 696 C 327.8 696 338.1 696.9 345.9 697 C 353.8 697 358.6 696.3 367.1 696.3 C 379.8 696.3 411.8 697 422 697 C 424.5 697 426.1 696.1 428.1 696.1 C 430.1 696.1 431.6 696.9 434 697 C 437.4 697.2 442.8 697.3 448.7 697.1 C 454.9 696.9 462.2 696.1 471.2 696 C 480.8 695.8 499.2 695.8 506 696 C 508.4 696.1 510 697 512 697 C 514 697 516 696 518 696 C 520 696 521.6 697 524 697 C 527.8 697 536.7 696 541 696 C 544.6 696 547.3 697 550 697 C 552.7 697 554.2 696.1 557 696 C 564 695.8 583.5 695.9 591.8 695.9 C 597.9 695.9 603.1 695.8 607 696 C 610.2 696.2 611.8 697 615 697 C 618.6 697 625.7 696.3 628.7 695.8 C 630.5 695.5 632.2 694.5 633 694.2 L 633 495 C 632 494.8 629.4 494 627 494 C 570.6 493.9 350.1 494.2 294.4 494.4 C 293.8 494.4 293.2 494.9 293 495 Z M 313.4 709.4 C 306.2 709.6 298.7 709.8 295.3 710.3 C 294.2 710.5 294.1 711.7 293.4 712.4 C 293.3 734.6 293.1 756.8 293 779 C 294 780.3 295 781.5 296 782.8 C 344.4 782.9 415 783.1 441 783 C 445.5 783 449.8 782.5 452.3 782.2 C 453.8 782 455.2 781.4 456 781 C 456.6 780.7 456.8 780.1 457.2 779.7 C 457.1 758.3 457.1 726.8 457 715.5 C 457 714.1 456.8 712.8 456.5 711.9 C 456.2 711.2 455.7 710.9 455.3 710.4 C 429.5 710.3 392.2 710.2 378 710 C 374.8 709.9 373 709 370 709 C 367 709 362.7 709.9 360 709.9 C 357.6 709.9 356.4 709 354 709 C 346.2 708.9 323.2 709.2 313.4 709.4 Z M 471.8 709.6 C 470.9 709.6 470.1 709.9 469.6 710.3 C 469 710.7 468.5 711 468.3 711.8 C 467.9 714.1 467.1 719.1 467 724 C 466.8 735.2 467 760.8 467 779.2 C 468 780.4 469 781.6 470 782.8 C 521.3 782.9 597.3 783.1 623.8 783 C 625.9 783 627.7 782.7 629 782.2 C 630.2 781.7 630.7 780.8 631.6 780.2 C 631.7 758.4 632 726.4 632 715 C 632 713.8 631.9 712.7 631.6 711.9 C 631.3 711.2 630.6 710.9 630.1 710.4 C 577.3 710.1 498.6 709.6 471.8 709.6 Z" fill="#2F6B3A" fill-rule="evenodd"/>
  <path d="M 246 205 L 881 205 C 881.2 205.7 881.9 207.4 882 209 C 882.2 212.5 882.2 222.5 882 226 C 882 227.6 881.4 229.2 881.2 229.8 C 880.2 230 877.5 231 875 231 C 769.3 231.2 351.7 231 247 231 C 246.8 230.3 246.1 228.6 246 227 C 245.8 222.7 246 208.7 246 205 Z M 572.9 610.6 C 572.7 612.3 572 616.8 572 621 C 572 629.3 572.9 652.6 573 660.4 C 573 663.4 572.7 666.1 572.5 667.9 C 572.3 669.1 571.5 670.3 571.3 670.8 C 568.1 670.6 556.2 669.9 552 670 C 549.5 670 547.2 671.4 545.8 671.3 C 544.7 671.2 544.2 670.4 543.8 669.4 C 543.4 668.2 543.1 666.2 543 664 C 542.8 659.9 542.9 652.5 542.9 644.8 C 542.9 635.8 543 621.6 543 610 C 543.3 609.7 543.4 609 544 609 C 548.3 608.8 564.2 608.7 569 609 C 570.7 609.1 572.2 610.3 572.9 610.6 Z M 184.4 648.4 C 186.1 648.2 188.4 648.2 190.3 648.6 C 192.2 649 194.1 649.4 195.9 650.7 C 197.7 651.9 199.8 654.4 200.9 656.3 C 202 658.2 202 660.9 202.5 662.1 C 202.9 663 203 664 204 664 C 206.2 664.1 212.4 662.4 215.5 662.6 C 218.7 662.9 221.1 663.8 223 665.3 C 224.9 666.7 226.6 669 227.1 671.4 C 227.7 673.8 226.3 678 226.3 679.8 C 226.3 680.7 226.2 681.5 227 682 C 229.1 683.4 236.1 686.8 238.6 688.4 C 240.1 689.4 241 690 241.8 691.6 C 242.8 693.7 244.5 697.7 244.9 700.9 C 245.3 704.2 245.1 707.9 244.2 711.1 C 243.3 714.4 241.6 717.3 239.4 720.3 C 237.2 723.3 233.1 727.4 231 729 C 229.6 730.1 228.5 730 226.8 730 C 223.1 730 213.8 729 209 729 C 204.5 729 202.3 729.9 197.7 730.1 C 192.4 730.2 181.3 730.2 177 730 C 174.9 729.9 173.7 729.1 171.9 729.1 C 170.1 729.1 168.4 729.9 166 730 C 161.4 730.1 148.7 730.3 144.5 729.9 C 142.8 729.7 142.3 728.5 141.2 727.2 C 139.2 724.7 134.4 718.5 132.7 715.3 C 131.2 712.7 130.6 711.2 130.6 708.2 C 130.5 704.7 131.2 697.5 132.4 694.2 C 133.4 691.2 135 690.1 137.3 688.1 C 139.6 686.1 144.5 684.8 146.2 682.2 C 147.9 679.6 146.6 675.2 147.4 672.4 C 148.2 669.6 150.2 666.8 151.2 665.2 C 151.9 664.2 152.6 663.8 153.7 663.3 C 154.7 662.7 156.3 662.3 157.6 662.2 C 158.8 662 159.9 661.9 161.4 662.1 C 163 662.4 165.6 663.6 167.1 663.7 C 168.4 663.8 169.3 663.3 170.2 662.9 C 171 662.5 171.7 662.1 172.2 661.2 C 173.2 659.4 175 654.2 176.3 652.3 C 177.3 650.8 178.7 650.4 180.1 649.8 C 181.4 649.1 182.7 648.6 184.4 648.4 Z M 450 717 L 450 774.1 C 449.4 774.3 447.9 775.3 446.3 775.5 C 443.9 775.8 439.8 776.1 435.4 776 C 430.3 775.9 421 775.1 415.9 775.1 C 411.5 775.1 408.2 776 405 776 C 401.9 776 400.2 775 397 775 C 381.2 775 325.9 776 310 776 C 306.6 776 303.1 775.7 301.5 775.2 C 300.4 774.9 299.9 774.1 299.9 773 C 299.7 763.9 299.8 729.9 300 720.6 C 300 719.1 300.5 717.8 301 717 C 301.5 716.3 302.1 716 303 716 C 304.5 716 307.2 717 310 717 C 334.5 717.2 426.7 717 450 717 Z M 624 717 C 624.2 718.6 625 722.8 625 726.7 C 625.2 736.2 624.7 766.3 624.7 774.3 C 624.3 774.5 623.3 775.4 622.2 775.6 C 620.9 775.9 619.1 776 617 776 C 602.9 775.9 554.7 775.3 537.9 775.3 C 529.1 775.3 521 776.1 516 776 C 512.8 776 511.2 775 508 775 C 502.2 775 486.8 775.9 481.4 775.9 C 479 775.9 476.6 775.7 475.4 775.2 C 474.3 774.7 474 773.8 474 772.6 C 473.7 762.9 474 726.3 474 717 C 476.2 716.9 481.9 716.6 487.2 716.6 C 512.2 716.6 601.2 716.9 624 717 Z" fill="#4F9D4A" fill-rule="evenodd"/>
  <path d="M 814.8 285.5 L 815 325 C 813.8 325.2 810.8 326 808 326 C 725.3 326.2 401.3 326.1 319 326 C 317.1 326 315.3 325.6 314.3 325.2 C 313.4 324.8 313.1 324.1 313.1 323.1 C 312.9 316.6 313 292.2 313 286 C 313.5 285.9 314.6 285.1 315.8 285.1 C 395 284.8 706.1 284.5 788.4 284.4 C 796.9 284.4 805.2 284.4 809.6 284.6 C 811.7 284.7 813.9 285.4 814.8 285.5 Z M 442 380 C 439.6 390.1 430.8 429.1 427.8 440.8 C 426.8 444.7 425.8 446.8 424 450 C 422.2 453.2 419.2 457.3 416.8 459.9 C 414.3 462.5 412 463.9 409.4 465.5 C 406.9 467.1 404.6 468.4 401.4 469.5 C 398.1 470.6 393.9 471.8 390.2 472.1 C 386.5 472.4 383.5 472.5 379.3 471.3 C 375 470 368.2 467.1 364.4 464.6 C 360.6 462.1 358.2 458.8 356.3 456.5 C 354.6 454.5 353.8 452.5 353.1 450.9 C 352.4 449.3 351.8 448.4 351.9 446.6 C 352.1 444.5 353 441.3 354.2 437.9 C 358 426.6 371.5 388.8 375 379 C 375.9 378.9 378.2 378.5 380.3 378.5 C 391 378.5 428.7 378.8 439 379 C 440.3 379 441.5 379.8 442 380 Z M 698.4 378.4 C 709.3 378.6 732.1 378.8 749 379 C 749.6 379.5 750.5 379.6 750.8 380.5 C 754.5 391.2 764.6 422.4 771.5 443.3 C 769.9 447.2 769 451.5 766.7 455 C 764.4 458.4 760.6 461.8 757.8 464.1 C 755 466.3 752.4 467.4 749.8 468.6 C 747.3 469.8 745 470.6 742.3 471.2 C 739.6 471.8 736.4 472.2 733.5 472.2 C 730.6 472.1 727.7 471.7 725.1 471.2 C 722.5 470.6 720.2 470 717.9 469.1 C 715.6 468.1 713.8 467.3 711.4 465.6 C 708.8 463.8 704.7 460.3 702.5 458.1 C 700.3 456 699 454.4 697.7 452.4 C 696.4 450.5 695.3 448.6 694.4 446.5 C 693.6 444.4 693 442.6 692.5 440 C 690.1 429.2 682 391.9 680.1 381.7 C 679.9 380.6 680.4 379.7 681 379 C 681.6 378.3 682.6 377.8 683.8 377.8 C 686.7 377.7 692.6 378.3 698.4 378.4 Z M 593 379 C 593.3 380.4 594.6 385.2 594.8 387.5 C 595 389.6 594.1 390.7 594.3 392.9 C 594.7 397.2 596.4 405.1 597.1 413.3 C 597.8 421.8 599.2 437.1 598.7 443.9 C 598.3 448.4 597 450.7 594.2 454.2 C 591.2 458 584.3 464.1 580.7 466.7 C 577.8 468.8 575.3 469 572.4 469.9 C 569.4 470.8 566.7 471.8 562.9 472.1 C 559.2 472.3 555 472.9 550.1 471.4 C 545.2 470 537.2 465.5 533.7 463.5 C 531.5 462.2 530.4 460.9 528.9 459.3 C 527.5 457.7 526.3 456.1 525 454 C 523.7 451.9 522.2 449 521.4 446.5 C 520.6 444 520.2 441.9 520.5 438.8 C 521.2 430.3 525 405 526.1 395.3 C 526.7 389.6 526.5 383.7 527 381 C 527.2 379.9 528.3 379.7 529 379 C 550.3 379 582.3 379 593 379 Z M 455.5 598.3 C 455.6 609.6 456 654.2 456 666 C 456 667.2 455.9 668.3 455.6 669.1 C 455.3 669.8 454.9 670.5 454.1 670.6 C 450.2 670.9 436.9 671.2 432.5 671.3 C 430.5 671.3 428.6 671.2 427.7 670.9 C 427.1 670.8 427 670.2 426.7 669.8 C 426.6 649.4 426.4 620.4 426.4 608.6 C 426.4 604.8 426.7 600.8 427 599 C 427.1 598.4 427.4 598 428 598 C 432.7 597.9 450.9 598.3 455.5 598.3 Z" fill="#F6E7B8" fill-rule="evenodd"/>
  <path d="M 320 519 L 605 519 C 605.2 519.8 606 522 606 524 C 606.2 549 606 644.8 606 669 C 604.8 669.2 601.8 669.9 599 670 C 595.2 670.2 586.2 670.1 583 670 C 581.7 670 580.5 669.8 579.7 669.5 C 579.1 669.2 578.9 668.7 578.5 668.3 C 578.3 646.7 577.9 614.2 577.8 603.4 C 576.7 603.2 574 602.5 571.5 602.3 C 568 602.1 561 601.7 557 602 C 553.1 602.3 549.4 603.6 547.3 603.9 C 546.3 604 545.4 604.2 544.7 603.5 C 543.9 602.8 543.1 601.5 542.8 599.9 C 542.4 597.3 542.7 590.3 542.2 587.9 C 542 586.5 540.7 586.2 540 585.3 C 528 585.2 510 585 504 585 C 503.8 582.5 503.1 572.8 502.7 569.9 C 502.5 568.8 502.1 568 501.6 567.4 C 501 566.8 500.3 566.4 499.3 566.4 C 491.8 566.4 463.7 567.3 456.6 567.5 C 456.3 568.3 455.2 570.5 455.1 572.6 C 455 576 455.8 585.1 455.7 588.3 C 455.6 589.9 454.3 591.3 454.1 591.9 C 449 591.8 433.6 591.6 423.4 591.4 C 422.6 592.1 421.4 592.2 421 593.4 C 420.3 595 420 599.4 419.5 601 C 419.3 601.9 419 602.8 418.1 602.8 C 415.3 603 406.8 602 403 602 C 399.8 602 397.3 603 395 603 C 392.7 603 390.7 602 389.4 602 C 388.4 602 387.7 602 387.2 602.8 C 386.6 603.6 386 605.3 386 607 C 385.8 614.4 386.2 639.5 386 647 C 386 649.1 385.1 650 385.1 652.1 C 385.1 654.9 386 661 386 664 C 386 666.4 385.2 669 385 670 L 320.6 669.5 C 320.3 668.8 319.2 667.2 319.1 665.4 C 318.8 661.4 318.9 653.3 318.9 645.2 C 318.9 621.8 318.8 546 319 525 C 319 522.6 319.8 520 320 519 Z M 805 526 C 805.2 527.2 805.9 530.3 806 533.2 C 806.2 542.8 806.1 567 806.2 583.6 C 806.2 600.2 806.2 623.8 806 633 C 805.9 635.4 805.2 638 805 639 L 689 639 C 688.8 637.9 688.1 635.2 688 632.7 C 687.8 626.9 687.9 615.6 687.9 604.2 C 687.9 586.6 688 552.7 688 527 C 688.3 526.7 688.7 526.3 689 526 C 727.7 526 785.7 526 805 526 Z M 373 529 C 366.4 535.5 340.3 560.9 333.5 568.1 C 332.3 569.4 332.1 571.1 332.1 572.4 C 332.1 573.7 333 575.2 333.7 576 C 334.4 576.7 335.4 576.8 336.2 576.8 C 337 576.8 337.8 576.6 338.5 575.9 C 345.7 568.9 365.6 548.7 379.2 535.1 C 379.2 533.8 379.2 531.8 379.2 531.2 Z M 729 535 C 723.8 540.1 703.2 560.1 697.9 565.7 C 697.1 566.5 697.1 567.3 697.1 568.4 C 697.2 569.5 698 571.5 698.2 572.2 C 698.6 572.2 700 572.6 700.8 572.4 C 701.6 572.2 702.4 571.9 703.2 571.2 C 708.6 566 723.2 551.1 733.2 541.1 C 733.2 539.8 733.2 537.9 733.2 537.2 Z M 388 542 C 374 556.2 353.2 576.9 346 584.6 C 345.1 585.6 344.9 586.8 345 588 C 345.1 589.2 345.9 591 346.6 591.8 C 347.4 592.6 348.6 592.8 349.5 592.8 C 350.4 592.8 351.3 592.4 352.1 591.6 C 359.4 584.6 386 558.2 393.3 550.8 C 394.6 549.4 395.5 547.9 395.9 546.7 C 396.2 545.7 395.6 544.7 395.1 544 C 394.7 543.3 394.1 542.6 393.2 542.4 C 392 542 389.7 542.1 388 542 Z M 708.2 586.2 C 708.8 586.2 710.8 586.2 712.1 586.2 C 723.8 574.9 741 558.4 747 552.3 C 747.8 551.6 747.9 550.6 748 549.8 C 748.1 549 747.8 547.7 747.7 547.3 C 746.7 547.1 743.9 546.4 742 546 C 730.9 557 714.4 573 708.6 579.1 C 707.6 580.1 707.3 581 707.2 582.2 C 707.1 583.4 708 585.5 708.2 586.2 Z" fill="#5B8FC7" fill-rule="evenodd"/>
  <path d="M 257 272 C 257 299 257.6 405.1 257 434 C 256.9 438.8 253.4 441.6 253.4 445.4 C 253.4 449.3 256.9 452.2 257 457 C 257.6 483.3 257 554.3 257 603 C 256.3 603.7 256 604.6 255 605 C 252.4 606.1 246.7 608.4 241.7 609.5 C 236.7 610.6 229.5 611.2 224.9 611.4 C 220.6 611.5 217.7 611.1 214.2 610.4 C 210.7 609.7 207.5 608.7 204 607.2 C 200.5 605.8 196.2 603.8 193.1 601.9 C 189.9 600 187.7 598.4 185.2 595.8 C 182.6 593.2 179.7 589.3 177.7 586.4 C 175.7 583.4 174.5 581.1 173.3 578.1 C 172 575 170.8 571.3 170.2 567.8 C 169.6 564.3 170.3 559 169.6 556.8 C 169.1 555 167.6 554.8 165.9 554.2 C 162.6 552.8 154 550.7 149.7 548.8 C 145.6 546.9 143.5 545 140.4 542.5 C 137.3 540.1 133.7 536.7 131.1 533.9 C 128.5 531 126.8 528.4 125 525.4 C 123.2 522.5 121.4 518.8 120.3 516.2 C 119.2 513.7 118.8 512.3 118.3 509.7 C 117.9 507.2 117.7 504.3 117.7 500.7 C 117.8 496.5 117.6 489.3 118.6 484.6 C 119.6 479.9 121.3 476.6 123.7 472.4 C 126 468.2 128.8 463.4 132.7 459.3 C 136.6 455.3 144.3 450.2 146.9 447.9 C 147.6 447.3 148.1 446.8 148.2 446 C 148.2 445.2 147.7 444.1 147 443.1 C 144.8 439.8 137.5 430.2 134.8 426 C 132.9 422.9 132.1 421.2 131 417.7 C 129.8 414.1 128.5 407.7 127.8 404.1 C 127.3 401.1 127.1 399.2 127.1 396.4 C 127.1 393.7 127.1 391.1 127.7 387.7 C 128.4 383.7 130.1 377 131.3 372.9 C 132.5 368.9 133 366.7 135 363 C 137.6 358.2 143 349.3 146.8 344.2 C 150.6 339 153.6 336.1 157.9 332.3 C 162.1 328.5 166.7 324.7 172.3 321.3 C 177.9 317.9 187.7 314 191.5 312 C 193.1 311.2 194.2 310.3 195.1 309.4 C 196 308.6 196.5 308 196.8 306.7 C 197.1 304.9 196.9 300.9 197.1 298.8 C 197.4 296.9 197.7 295.9 198.4 294.1 C 199.1 292 200.4 288.4 201.5 286.3 C 202.7 284.1 203.4 282.9 205.3 281.2 C 207.7 279 212.2 275.1 216 273 C 219.8 270.9 223.3 269.3 228.3 268.5 C 233.3 267.7 241.1 267.7 245.9 268.3 C 250.5 268.9 255.2 271.4 257 272 Z" fill="#B9DC8A" fill-rule="evenodd"/>
  <path d="M 367 379 C 363.7 388.6 351.2 425.2 347.2 436.3 C 345.8 440.2 344.5 443.1 343.1 445.9 C 341.7 448.8 340.9 450.8 338.6 453.5 C 336.3 456.4 332.2 460.8 328.8 463.3 C 325.4 465.9 321.5 467.4 318 468.8 C 314.6 470.1 311.8 471 308.1 471.5 C 304.5 472 299.8 472.2 296 471.7 C 292.3 471.3 289 470.3 285.4 468.8 C 281.9 467.3 278.3 465.3 274.9 462.5 C 271.6 459.7 267.4 455.2 265.3 452.2 C 263.3 449.3 263.3 446.8 262.3 444.1 C 272.2 428.5 285.4 407.6 292.1 397.2 C 296.2 390.9 300.4 384.9 302.8 381.8 C 304 380.2 305.3 379.6 306.5 378.5 C 325 378.3 351.9 377.9 362 378 C 364 378 366.2 378.8 367 379 Z M 451 378 L 519 378 C 519.1 379.8 520 384.5 519.6 388.8 C 518.6 399.6 514.8 432.3 513 442.7 C 512.4 446.3 510.6 448.5 509.2 451.1 C 507.8 453.6 506.2 456 504.5 458.1 C 502.8 460.1 501 461.6 498.7 463.3 C 496.5 465 494.5 467.1 491 468.4 C 486.9 469.8 478.2 471.4 474.2 471.9 C 471.5 472.3 469.6 472 467.3 471.7 C 465 471.4 463.2 471 460.6 470 C 457.9 469.1 454.2 467.3 451.5 465.7 C 448.8 464.2 446.2 462.4 444.3 460.7 C 442.4 459 441.5 457.7 440.1 455.6 C 438.7 453.4 436.8 449.7 435.9 447.6 C 435.2 445.9 435 444.8 435 443 C 435 441.2 435.3 439.2 435.9 436.7 C 438.2 426.4 446.7 391 449.2 381.2 C 449.6 379.8 450.7 378.5 451 378 Z M 602 378 C 613 378 656.2 377.8 668 378 C 670 378 672.2 378.8 673 379 C 675.1 389.7 684 431.4 685.8 443.2 C 686.2 445.9 684.8 447.6 683.9 449.7 C 682.9 451.9 681.3 454.4 680.1 456.1 C 678.8 457.9 678 458.8 676.3 460.3 C 674.4 462 671.2 464.5 668.8 466.1 C 666.3 467.6 664.1 468.7 661.6 469.6 C 659.1 470.5 657.1 470.8 654.1 471.2 C 650.9 471.6 646.8 472.6 642.5 472 C 638.3 471.4 632.1 469.3 628.5 467.7 C 625.1 466.3 623.1 464.4 620.8 462.6 C 618.6 460.8 616.7 459.4 614.8 457.2 C 612.9 455.1 610.8 452.2 609.4 449.6 C 608 447 606.8 445.1 606.3 441.7 C 604.9 431.2 601.9 396.6 601 386.4 C 600.8 383.8 600.8 381.4 601 380 C 601.1 379.1 601.8 378.3 602 378 Z M 758 378 C 768.2 378 808.2 377.8 819 378 C 820.6 378 821.5 378.9 822.7 379.3 C 836.2 400.4 849.7 421.4 863.3 442.5 C 863.2 443.3 863.5 444.1 863 445 C 861.5 447.6 856.5 454.9 854.2 457.8 C 852.4 460.1 851 461.3 849 462.8 C 847 464.4 845 465.7 842.2 467 C 839.4 468.3 835.4 469.9 832.4 470.7 C 829.4 471.6 827.2 471.9 824.4 472 C 821.6 472.1 818.7 471.9 815.5 471.4 C 812.2 470.9 807.8 469.8 805.1 468.9 C 802.6 468 801.4 467.3 799.1 465.8 C 796.7 464.2 793.2 461.6 790.7 459.4 C 788.2 457.2 786 454.8 784.3 452.6 C 782.6 450.4 781.7 449.1 780.7 446.4 C 776.5 435.4 763.2 398 759.4 386.6 C 758.3 383.3 758.2 379.4 758 378 Z M 420 609.8 L 420 669 C 419.3 669.2 417.6 669.9 416 670 C 412.6 670.3 403.4 670.5 399.7 670.6 C 397.5 670.6 395.5 670.5 394.2 670.3 C 393.1 670 392.1 669.2 391.7 669 C 391.8 659.1 391.9 629.7 392 610 C 392.3 609.7 392.4 609 393 609 C 396.6 608.8 409.2 608.5 413.7 608.7 C 416.2 608.7 418.9 609.6 420 609.8 Z" fill="#D8433B" fill-rule="evenodd"/>
  <path d="M 297 266 C 474.5 266.1 740.4 266 829.4 266.2 C 830.3 266.2 830.9 266.7 831.3 267.5 C 831.7 268.2 832 269.3 832 270.6 C 832.1 283.2 832.1 330.6 832 342.8 C 832 343.3 831.8 343.6 831.4 343.8 C 830.9 344.1 830 344.3 829 344.4 C 826.3 344.5 820.7 345.1 815.2 345 C 808.2 344.9 795.8 344.1 786.9 343.9 C 778.1 343.7 767.2 343.8 762 344 C 759.6 344.1 758 345 756 345 C 754 345 752.3 344 750 344 C 747.7 344 745.2 345 742 345 C 666.8 345.1 372.8 345 298.6 344.8 C 297.7 344.8 297.1 344.3 296.7 343.5 C 296.3 342.8 296 341.7 296 340.4 C 295.9 327.6 296 291.5 296 267 C 296.3 266.7 296.7 266.3 297 266 Z M 821 332 C 821 323.4 821 289.5 820.9 280.5 C 820.9 279.4 820.5 278.6 820 278 C 819.5 277.4 818.8 277.1 817.8 277.1 C 732.7 277 394.4 277.3 309.4 277.4 C 308.8 277.4 308.3 277.5 308 278 C 307.6 278.8 307 280.4 307 282 C 306.8 288.7 306.8 310.6 306.9 318.4 C 306.9 322.7 306.6 326.5 307.1 329 C 307.5 331.1 308.9 332 309.8 333.4 C 477.8 333.3 728.8 333.2 814 333 C 816.8 333 819.8 332.2 821 332 Z M 625 501 C 625.2 502.1 625.9 504.8 626 507.3 C 626.2 512.1 626.1 520.6 626.1 529.4 C 626 559.4 625.7 634.7 625.5 687.4 C 625 687.8 624.6 688.4 623.9 688.6 C 623 688.8 621.7 689 620.2 689 C 594.6 689.1 511.7 689.1 470.3 689.1 C 431 689.1 390 689.2 372 689 C 368 689 366 688 362 688 C 354.9 688 339.7 689.1 329.5 689 C 319.2 688.9 305.2 687.6 300.4 687.3 C 300.2 686.9 299.1 685.8 299 684.6 C 299 683.4 300 681.8 300 680 C 300 678.2 299 676.3 299 674 C 299 671.7 300 669.2 300 666 C 300.1 638.4 299.6 535.8 299.6 508.5 C 299.6 505.9 299.8 503.2 300 502 C 300.1 501.4 300.7 501.3 301 501 C 409 501 571 501 625 501 Z M 612 512 C 562.6 512.1 365.1 512.3 315.4 512.4 C 314.8 512.4 314.3 512.3 314.1 512.9 C 313.5 514.1 312.3 517.8 312.1 520 C 311.9 522.2 313 523.6 313 526 C 313 529 312.1 534.8 312.1 538.1 C 312.1 541.1 313 543.2 313 545.6 C 313 548.1 312.1 550.8 312.1 553 C 312.1 555.2 312.9 556.6 313 559 C 313.2 563.1 313.1 572.4 313.1 577.6 C 313.1 582.6 313.2 586.9 313 590 C 312.9 592.4 312 593.8 312 596 C 312 598.2 313 600.2 313 603 C 313.1 614.9 312.7 655.4 312.7 667.3 C 312.8 670.1 313 672.5 313.4 674.2 C 313.8 675.5 314.6 676.2 315.2 677.3 C 413.1 677.2 559.5 677.3 609 677 C 610.4 677 611.6 676.7 612.2 675.6 C 612.9 674.5 613 672.5 613 670.4 C 613.1 651.6 613.1 588.3 613.1 562.9 C 613.1 545 613.2 526.5 613 518 C 612.9 515.6 612.2 513 612 512 Z M 685 658 C 686 657.3 686.9 657.6 688 657.7 C 689.1 657.9 690.3 658.2 691.5 658.8 C 692.6 659.3 694.1 660.2 695 661 C 695.8 661.8 696.5 662.2 696.8 663.4 C 697.1 665.3 697.3 670.5 697.2 672.4 C 697.1 673.5 696.6 674.1 696.1 674.8 C 695.6 675.5 695 676.2 694 676.6 C 692.6 677.1 690 677.9 688.2 678.2 C 686.3 678.4 684.4 678.4 683 678 C 681.6 677.6 680.9 676.7 679.9 675.5 C 678.9 674.4 677.4 672.8 677 671 C 676.6 669.2 676.1 666.9 677.4 664.7 C 678.7 662.6 683.2 659.2 685 658 Z" fill="#F7CF46" fill-rule="evenodd"/>
  <path d="M 664 501 L 829 501 C 829.2 502.2 830 505.2 830 508 C 830.2 550.3 830.1 708 830.1 755 C 830.1 769 830.2 783.4 830 790 C 829.9 791.9 828.8 793.7 828.5 794.4 C 821.5 794.6 803.2 795.3 786.4 795.4 C 759.1 795.5 685.2 795.1 665 795 C 664.8 794.2 664 792 664 790 C 663.8 741 664 549.2 664 501 Z M 683.4 519.4 C 682.8 519.4 682.3 519.3 682.1 519.9 C 681.7 520.8 681 522.9 681 525 C 680.8 545.3 680.8 621.5 681 641.5 C 681 642.9 680.8 644.1 682 645 C 683.2 645.9 685.5 647 688 647 C 709.2 647.3 768.7 647 809 647 C 810.3 645.7 811.7 644.3 813 643 C 813 603.5 813.2 544.9 813 524.5 C 813 523.1 813.2 521.9 812 521 C 810.8 520.1 808.5 519 806 519 C 784.6 518.7 704.1 519.3 683.4 519.4 Z M 684.4 652.4 C 682.7 652.6 681.4 652.7 679.8 653.8 C 677.9 655 674.5 657.9 673.1 659.9 C 671.6 661.9 671.4 663.6 671.1 665.8 C 670.8 667.9 670.9 670.9 671.2 672.8 C 671.5 674.7 672 675.8 673.1 677.4 C 674.4 679 676.6 681.4 678.5 682.6 C 680.5 683.8 682.8 684.2 684.8 684.5 C 686.8 684.9 688.8 685 690.5 684.7 C 692.2 684.4 693.4 683.7 695.1 682.6 C 696.8 681.5 699.2 679.8 700.6 678.1 C 702 676.3 702.8 674.1 703.4 672.3 C 704 670.5 704.2 668.9 704 667 C 703.7 665.1 702.9 662.7 701.9 660.9 C 700.8 659 699.7 657.5 697.7 656.1 C 695.6 654.7 691.9 653.3 689.7 652.7 C 687.7 652.1 686.1 652.2 684.4 652.4 Z M 811.7 689.8 C 811 689.6 809.2 689 807.5 689 C 786.1 688.9 704.3 689.3 683.4 689.4 C 682.9 689.4 682.5 689.4 682.1 689.7 C 681.8 690.1 681.6 690.9 681.5 691.7 C 681.3 693.2 681 696.2 681 699.2 C 680.9 713 680.7 761.7 681 774.9 C 681 776.5 681.6 777.7 682.7 778.6 C 683.8 779.4 685.4 779.8 687.4 780 C 690.7 780.2 696.7 780.1 702.9 780.1 C 723.2 780.1 791 780.2 809 780 C 809.8 780 810.4 779.9 810.9 779.2 C 811.5 778.2 812.5 776.3 812.9 774.2 C 813.2 772.2 813.1 769.8 813.1 766.8 C 813.1 758.4 813.2 732.1 813 724 C 812.9 721.6 812 720.4 812 718 C 812 713 813 698.7 813 694 C 813 692.2 811.9 690.5 811.7 689.8 Z" fill="#8A5A33" fill-rule="evenodd"/>
  <path d="M 504 592 L 535 592 C 535.2 592.8 536 595 536 597 C 536.2 609.8 536 657 536 669 C 535.3 669.2 533.6 669.9 532 670 C 528 670.3 516.6 670.6 512.2 670.6 C 509.5 670.6 507.1 670.6 505.5 670.3 C 504.2 670 503 669.1 502.5 668.8 C 502.6 657 502.8 610.8 503 598 C 503 595.6 503.8 593 504 592 Z M 805 696 C 805.2 696.8 806 699 806 701 C 806.1 703.9 805.3 708.3 805.3 713.1 C 805.3 718.1 806.1 726.5 806 731 C 806 734.6 805 736.4 805 740 C 805 746.7 805.8 765.8 806 771 C 805.4 771.3 803.9 773 802.2 773 C 782.7 773.3 707.9 773 689 773 C 688.8 771.8 688.1 768.7 688 765.8 C 687.8 761.4 687.9 754.4 687.9 746.8 C 687.9 735.3 688 713.6 688 697 C 688.3 696.7 688.7 696.3 689 696 C 727.7 696 785.7 696 805 696 Z M 227.2 739.2 C 227.1 740 227.3 742.4 226.7 744.4 C 224.1 753.7 216.5 778.2 211.4 795.2 C 210.9 795.4 210.5 796 209.7 796 C 208.8 796 207.5 795.1 205.9 795.1 C 198 795 169.5 795.5 162.2 795.6 L 146 740 C 146.3 739.7 147.3 738.7 148 738 C 172.7 738 208.8 737.8 222 738 C 224.1 738 226.3 739 227.2 739.2 Z" fill="#F08A2C" fill-rule="evenodd"/>
  <path d="M 496 574 C 496.1 574.2 496.5 574.5 496.5 575 C 496.7 590 497.1 648.2 497 664 C 497 666.4 496.2 669 496 670 L 463 671 C 462.9 670.8 462.5 670.5 462.5 670 C 462.3 653.8 462.2 606 462 574 C 462.3 573.7 462.7 573.3 463 573 C 474 573.3 490.5 573.8 496 574 Z" fill="#7B4FA3" fill-rule="evenodd"/>
  <path d="M 257 613 C 253.7 613.8 242.2 617 237.2 618 C 233.3 618.8 230.5 618.9 227.2 619 C 224 619.2 220.6 619.1 217.5 618.8 C 214.4 618.4 211.5 617.8 208.6 617 C 205.6 616.3 203.2 615.7 200 614 C 195.8 611.9 188.1 607.8 183.7 604.3 C 179.2 600.9 175.7 596.6 173.2 593.4 C 170.9 590.6 169.9 588.6 168.4 585.6 C 166.9 582.6 165.2 578.9 164.4 575.6 C 163.6 572.3 163.8 568.3 163.4 566 C 163.1 564.3 162.8 563 162 562 C 161.2 561 160.3 560.5 158.9 559.9 C 156.9 559.2 153.6 559.1 150.4 557.6 C 146.8 555.9 140.7 552.3 137 549.6 C 133.3 547 130.7 544.2 128.2 541.7 C 125.7 539.1 123.6 536.7 121.8 534.2 C 120 531.7 118.5 529.3 117.2 526.8 C 115.9 524.3 114.8 522.4 113.9 519.2 C 112.7 514.5 110.1 504.3 109.7 498.5 C 109.3 492.7 110.1 489.1 111.4 484 C 112.7 478.9 115.2 472.6 117.6 467.9 C 119.9 463.3 122.2 459.7 125.3 456.3 C 128.4 452.9 134 449.6 136.1 447.7 C 137.1 446.8 137.8 446 138 445 C 138.2 444 137.9 442.8 137.1 441.6 C 135.8 439.8 132.6 437.5 130.5 434.1 C 128.4 430.7 125.8 424.9 124.4 421.1 C 123 417.5 122.5 415.4 121.8 411.7 C 121 408 120.2 402.5 119.9 399 C 119.7 395.9 119.6 394.2 120 391 C 120.4 387.3 121.3 381.5 122.5 376.9 C 123.6 372.3 125.3 367.3 126.8 363.3 C 128.3 359.4 129.2 357 131.6 353.2 C 134.4 348.6 139.8 340.7 143.8 335.8 C 147.8 330.9 151.8 327.4 155.8 324 C 159.7 320.6 163 318 167.4 315.4 C 171.8 312.8 178.5 310.4 181.9 308.6 C 184.4 307.3 186.4 305.9 187.7 304.7 C 188.9 303.6 189.4 302.8 189.8 301.3 C 190.3 299 190.4 294.2 191.1 291.4 C 191.8 288.6 192.7 286.9 194.1 284.5 C 195.4 282 197 279.2 199 276.8 C 201 274.3 203.4 271.9 206.1 269.9 C 208.7 268 211.7 266.5 214.9 265.1 C 218.1 263.6 220.9 261.9 225.2 261.4 C 230.2 260.7 239.9 260.8 244.9 261.1 C 249.2 261.3 253.4 262.9 255.4 263 C 256.1 263.1 256.8 262.9 256.9 262.2 C 257.4 259.3 258.2 249.2 258.2 245.5 C 258.2 243.2 257.2 240.9 257 240 C 256.2 239.8 254.3 238.6 252.3 238.6 C 249.6 238.6 243.1 240.3 240.6 240 C 238.6 239.7 238.2 237.5 237 236.3 C 237 224.2 237 212 237 199.8 C 237.7 198.8 238.3 197.6 239 196.9 C 239.6 196.3 240.1 196 241 196 C 348 195.8 773.7 195.9 881 196 C 882.6 196 883.7 196.3 885 196.7 C 886.4 197.2 888.2 197.7 889.2 198.8 C 890.1 199.9 890.7 201.4 890.7 203.3 C 890.7 209.6 889.7 225.6 889.2 236.7 C 887.7 237.7 886.8 239.3 884.7 239.6 C 881.6 240.2 873.4 239.5 870.7 239.9 C 869.7 240 869.5 241 868.9 241.6 C 868.9 305.6 868.5 399.9 869 433.7 C 869.1 437.9 872.2 440 872.2 443.9 C 872.2 447.8 869 451.6 869 457 C 868.5 515.5 869.1 738 869 795 C 869 796.6 868.8 797.8 868.5 799 C 868.1 800.2 867.5 801.5 866.7 802.4 C 865.8 803.2 864.8 803.6 863.5 804.1 C 862.1 804.5 860.6 805 858.6 805 C 828.4 805.2 752.9 805.1 682.5 805.1 C 584 805.1 337.8 805.1 268 805 C 266.1 805 264.8 804.7 263.4 804.3 C 261.9 803.9 260.3 804.1 259.4 802.6 C 258.4 800.7 257.1 797 257 793 C 256.6 778.4 256.8 729.5 257 715 C 257 711.4 258 709 258 706 C 258 703 257 700.6 257 697 C 256.8 681.5 257 627 257 613 Z M 246 205 C 246 209 245.8 224.5 245.9 228.8 C 245.9 229.5 246.2 230.3 246.3 230.6 C 246.6 230.7 247.2 231.1 247.9 231.1 C 352.8 231.2 770.3 231.1 875.6 231 C 877.3 231 878.9 230.7 879.9 230.5 C 880.7 230.2 881.6 230.1 881.7 229.2 C 882.1 227.3 882.3 222.4 882.3 218.5 C 882.3 214.6 882.4 208.3 882 206 C 881.9 205.1 881 204.9 880.1 204.9 C 774.1 204.7 351.7 205 246 205 Z M 266 241 C 266 251 265.8 289.3 266 301 C 266.1 305 267 307.3 267 311 C 267 314.7 266 318.7 266 323 C 266 327.3 267 332 267 337 C 267 342 266 349.2 266 353 C 266 355.8 267 357.7 267 360 C 267 362.3 266.1 364.4 266 367 C 266 369.7 266.7 372.3 266.7 375.9 C 266.7 383.2 266 403.8 266 410.7 C 266 413.2 266.2 415.6 266.6 417 C 266.8 417.9 267.8 418.7 268 419 C 273.3 411.3 294.4 380.5 299.9 372.6 C 300.3 372.1 300.6 371.8 301.3 371.6 C 302.2 371.3 303.5 371 305 371 C 392.2 370.9 737.4 371 824.4 371.1 C 825.5 371.1 826.3 371.4 827 371.8 C 827.7 372.2 828.1 372.6 828.6 373.4 C 833.6 381.1 852.3 410.6 857 418 C 857.4 417.6 858.7 416.4 859.6 415.6 C 859.7 357.4 859.9 270.1 860 241 C 859.8 240.9 859.5 240.5 859 240.5 C 760.2 240.4 366.2 240.3 267.4 240.4 C 266.8 240.4 266.2 240.9 266 241 Z M 291 259 C 381.9 259 745.1 258.8 836.3 259 C 837.2 259 837.8 259.6 838.3 260.1 C 838.8 260.7 839.4 261.3 839.4 262.3 C 839.6 277.1 839.3 320.2 839.3 349.1 C 838.4 350 838 351.1 836.7 351.7 C 835.3 352.3 833.3 353 831 353 C 740.3 353.2 383.1 353.1 292.8 352.8 C 291.1 352.8 289.6 351.3 289 351 C 289 336.5 288.7 279.3 289 264 C 289 261.8 290.7 259.8 291 259 Z M 297 266 C 296.8 266.8 296 269 296 271 C 295.8 283.4 295.9 328.3 296 340.4 C 296 341.7 296.3 342.8 296.7 343.5 C 297.1 344.3 297.7 344.8 298.6 344.8 C 372.8 345 666.8 345.1 742 345 C 745.2 345 747.7 344 750 344 C 752.3 344 754 345 756 345 C 758 345 759.6 344.1 762 344 C 767.2 343.8 778.1 343.7 786.9 343.9 C 795.8 344.1 808.2 344.9 815.2 345 C 820.7 345.1 826.3 344.5 829 344.4 C 830 344.3 830.9 344.1 831.4 343.8 C 831.8 343.6 832 343.3 832 342.8 C 832.1 330.6 832.1 283.2 832 270.6 C 832 269.3 831.7 268.2 831.3 267.5 C 830.9 266.7 830.3 266.2 829.4 266.2 C 740.4 266 385.7 266 297 266 Z M 257 272 C 255.2 271.4 250.5 268.9 245.9 268.3 C 241.1 267.7 233.3 267.7 228.3 268.5 C 223.3 269.3 219.8 270.9 216 273 C 212.2 275.1 207.7 279 205.3 281.2 C 203.4 282.9 202.7 284.1 201.5 286.3 C 200.4 288.4 199.1 292 198.4 294.1 C 197.7 295.9 197.4 296.9 197.1 298.8 C 196.9 300.9 197.1 304.9 196.8 306.7 C 196.5 308 196 308.6 195.1 309.4 C 194.2 310.3 193.1 311.2 191.5 312 C 187.7 314 177.9 317.9 172.3 321.3 C 166.7 324.7 162.1 328.5 157.9 332.3 C 153.6 336.1 150.6 339 146.8 344.2 C 143 349.3 137.6 358.2 135 363 C 133 366.7 132.5 368.9 131.3 372.9 C 130.1 377 128.4 383.7 127.7 387.7 C 127.1 391.1 127.1 393.7 127.1 396.4 C 127.1 399.2 127.3 401.1 127.8 404.1 C 128.5 407.7 129.8 414.1 131 417.7 C 132.1 421.2 132.9 422.9 134.8 426 C 137.5 430.2 144.8 439.8 147 443.1 C 147.7 444.1 148.2 445.2 148.2 446 C 148.1 446.8 147.6 447.3 146.9 447.9 C 144.3 450.2 136.6 455.3 132.7 459.3 C 128.8 463.4 126 468.2 123.7 472.4 C 121.3 476.6 119.6 479.9 118.6 484.6 C 117.6 489.3 117.8 496.5 117.7 500.7 C 117.7 504.3 117.9 507.2 118.3 509.7 C 118.8 512.3 119.2 513.7 120.3 516.2 C 121.4 518.8 123.2 522.5 125 525.4 C 126.8 528.4 128.5 531 131.1 533.9 C 133.7 536.7 137.3 540.1 140.4 542.5 C 143.5 545 145.6 546.9 149.7 548.8 C 154 550.7 162.6 552.8 165.9 554.2 C 167.6 554.8 169.1 555 169.6 556.8 C 170.3 559 169.6 564.3 170.2 567.8 C 170.8 571.3 172 575 173.3 578.1 C 174.5 581.1 175.7 583.4 177.7 586.4 C 179.7 589.3 182.6 593.2 185.2 595.8 C 187.7 598.4 189.9 600 193.1 601.9 C 196.2 603.8 200.5 605.8 204 607.2 C 207.5 608.7 210.7 609.7 214.2 610.4 C 217.7 611.1 220.6 611.5 224.9 611.4 C 229.5 611.2 236.7 610.6 241.7 609.5 C 246.7 608.4 252.4 606.1 255 605 C 256 604.6 256.3 603.7 257 603 C 257 554.3 257.6 483.3 257 457 C 256.9 452.2 253.4 449.3 253.4 445.4 C 253.4 441.6 256.9 438.8 257 434 C 257.6 405.1 257 299 257 272 Z M 309 277 C 393.8 277 732.7 277 817.8 277.1 C 818.8 277.1 819.5 277.4 820 278 C 820.5 278.6 820.9 279.4 820.9 280.5 C 821 289.5 821 323.4 821 332 C 819.8 332.2 816.8 333 814 333 C 728.8 333.2 477.8 333.3 309.8 333.4 C 308.9 332.1 307.7 331.3 307.3 329.5 C 306.8 327.7 306.9 325.2 306.9 322.2 C 306.8 314.3 306.6 289.5 307 282 C 307.1 279.8 308.7 277.8 309 277 Z M 314 285 C 313.8 285.7 313 287.4 313 289 C 312.9 295.4 312.9 317.1 313.1 323.1 C 313.1 324.1 313.4 324.8 314.3 325.2 C 315.3 325.6 317.1 326 319 326 C 401.3 326.1 725.3 326.2 808 326 C 810.8 326 813.8 325.2 815 325 L 815 286 C 814.3 285.8 812.5 285.1 810.7 285 C 806.3 284.8 797.3 284.4 788.4 284.4 C 705.6 284.4 393.1 284.9 314 285 Z M 367 379 C 366.2 378.8 364 378 362 378 C 351.9 377.9 325 378.3 306.5 378.5 C 305.3 379.6 304 380.2 302.8 381.8 C 300.4 384.9 296.2 390.9 292.1 397.2 C 285.4 407.6 272.2 428.5 262.3 444.1 C 263.3 446.8 263.3 449.3 265.3 452.2 C 267.4 455.2 271.6 459.7 274.9 462.5 C 278.3 465.3 281.9 467.3 285.4 468.8 C 289 470.3 292.3 471.3 296 471.7 C 299.8 472.2 304.5 472 308.1 471.5 C 311.8 471 314.6 470.1 318 468.8 C 321.5 467.4 325.4 465.9 328.8 463.3 C 332.2 460.8 336.3 456.4 338.6 453.5 C 340.9 450.8 341.7 448.8 343.1 445.9 C 344.5 443.1 345.8 440.2 347.2 436.3 C 351.2 425.2 363.7 388.6 367 379 Z M 375 379 C 371.5 388.8 358 426.6 354.2 437.9 C 353 441.3 352.1 444.5 351.9 446.6 C 351.8 448.4 352.4 449.3 353.1 450.9 C 353.8 452.5 354.6 454.5 356.3 456.5 C 358.2 458.8 360.6 462.1 364.4 464.6 C 368.2 467.1 375 470 379.3 471.3 C 383.5 472.5 386.5 472.4 390.2 472.1 C 393.9 471.8 398.1 470.6 401.4 469.5 C 404.6 468.4 406.9 467.1 409.4 465.5 C 412 463.9 414.3 462.5 416.8 459.9 C 419.2 457.3 422.2 453.2 424 450 C 425.8 446.8 426.8 444.7 427.8 440.8 C 430.8 429.1 439.6 390.1 442 380 C 441.5 379.8 440.3 379 439 379 C 428.7 378.8 391 378.5 380.3 378.5 C 378.2 378.5 375.9 378.9 375 379 Z M 520 379 C 519.2 378.8 517 378 515 378 C 503.6 377.9 472.6 378.3 451.4 378.4 C 450.7 379 449.7 379.3 449.4 380.3 C 446.8 389.9 438.4 425.5 436 436 C 435.4 438.7 435 441.1 435 443 C 435 444.9 435.2 445.9 435.9 447.6 C 436.8 449.7 438.7 453.4 440.1 455.6 C 441.5 457.7 442.4 459 444.3 460.7 C 446.2 462.4 449 464.3 451.5 465.7 C 454 467.2 456.9 468.6 459.4 469.6 C 461.9 470.6 463.9 471.1 466.2 471.5 C 468.5 471.9 470.5 472.1 473 472 C 475.5 471.9 478.1 471.6 481 471 C 483.9 470.4 487.8 469.6 490.5 468.5 C 493.2 467.4 494.9 466.2 497.2 464.5 C 499.6 462.7 502.6 460.2 504.7 458.1 C 506.7 455.9 508.2 453.4 509.4 451.4 C 510.6 449.4 511.3 448.2 511.9 445.9 C 512.8 442.3 514.1 436.4 514.9 429.9 C 516.3 418.8 519.2 387.5 520 379 Z M 602 378 C 601.9 379.7 600.8 383.9 601.1 387.9 C 601.8 398.5 605 431.4 606.3 441.7 C 606.8 445.1 608 447 609.4 449.6 C 610.8 452.2 612.9 455.1 614.8 457.2 C 616.7 459.4 618.6 460.8 620.8 462.6 C 623.1 464.4 625.1 466.3 628.5 467.7 C 632.1 469.3 638.3 471.4 642.5 472 C 646.8 472.6 650.9 471.6 654.1 471.2 C 657.1 470.8 659.1 470.5 661.6 469.6 C 664.1 468.7 666.3 467.6 668.8 466.1 C 671.2 464.5 674.4 462 676.3 460.3 C 678 458.8 678.8 457.9 680.1 456.1 C 681.3 454.4 682.9 451.9 683.9 449.7 C 684.8 447.6 686.2 445.9 685.8 443.2 C 684 431.4 675.1 389.7 673 379 C 672.2 378.8 670 378 668 378 C 656.2 377.8 613 378 602 378 Z M 698.4 378.4 C 692.6 378.3 686.7 377.7 683.8 377.8 C 682.6 377.8 681.6 378.3 681 379 C 680.4 379.7 679.9 380.6 680.1 381.7 C 682 391.9 690.1 429.2 692.5 440 C 693 442.6 693.6 444.4 694.4 446.5 C 695.3 448.6 696.4 450.5 697.7 452.4 C 699 454.4 700.3 456 702.5 458.1 C 704.7 460.3 708.8 463.8 711.4 465.6 C 713.8 467.3 715.6 468.1 717.9 469.1 C 720.2 470 722.5 470.6 725.1 471.2 C 727.7 471.7 730.6 472.1 733.5 472.2 C 736.4 472.2 739.6 471.8 742.3 471.2 C 745 470.6 747.3 469.8 749.8 468.6 C 752.4 467.4 755 466.3 757.8 464.1 C 760.6 461.8 764.4 458.4 766.7 455 C 769 451.5 769.9 447.2 771.5 443.3 C 764.6 422.4 754.5 391.2 750.8 380.5 C 750.5 379.6 749.6 379.5 749 379 C 732.1 378.8 709.3 378.6 698.4 378.4 Z M 758 378 C 758.2 379.4 758.3 383.3 759.4 386.6 C 763.2 398 776.5 435.4 780.7 446.4 C 781.7 449.1 782.6 450.4 784.3 452.6 C 786 454.8 788.2 457.2 790.7 459.4 C 793.2 461.6 796.7 464.2 799.1 465.8 C 801.4 467.3 802.6 468 805.1 468.9 C 807.8 469.8 812.2 470.9 815.5 471.4 C 818.7 471.9 821.6 472.1 824.4 472 C 827.2 471.9 829.4 471.6 832.4 470.7 C 835.4 469.9 839.4 468.3 842.2 467 C 845 465.7 847 464.4 849 462.8 C 851 461.3 852.4 460.1 854.2 457.8 C 856.5 455 861 448.2 862.5 445.8 C 863 445 862.9 444.2 863.2 443.3 C 849.7 422 836.2 400.6 822.7 379.3 C 821.5 378.9 820.6 378 819 378 C 808.2 377.8 768.2 378 758 378 Z M 529 379 C 528.7 379.7 527.4 381.3 527.1 383.1 C 525.7 393.1 521.4 428.3 520.5 438.8 C 520.2 441.9 520.6 444 521.4 446.5 C 522.1 449 523.7 451.9 525 454 C 526.3 456.1 527.5 457.7 528.9 459.3 C 530.4 460.9 531.5 462.2 533.7 463.5 C 537.2 465.5 545.2 470 550.1 471.4 C 555 472.9 559.2 472.3 562.9 472.1 C 566.7 471.8 569.4 470.8 572.4 469.9 C 575.3 469 577.8 468.8 580.7 466.7 C 584.3 464.1 591.5 457 594.2 454.2 C 595.6 452.7 596 451.5 596.8 449.7 C 597.5 448 598.4 446.3 598.6 443.9 C 598.9 440.1 598.7 432.4 598.4 427 C 598.1 421.5 597.5 415.1 596.9 411.1 C 596.4 407.8 595.4 406.2 595.1 402.9 C 594.6 397.8 594.2 384.2 593.7 380.2 C 593.6 379.4 592.6 379.3 591.7 379.2 C 590.6 378.9 588.8 378.9 586.9 378.9 C 576.4 378.9 538.6 379 529 379 Z M 777 456 C 776.7 456.2 775.8 456.4 775.3 457 C 773.8 458.7 771.3 463.2 768.2 466.1 C 765.1 469 760.5 472.3 756.8 474.3 C 753 476.4 749.6 477.4 745.7 478.4 C 741.8 479.4 737.4 480.3 733.5 480.4 C 729.5 480.4 725.6 479.6 721.8 478.7 C 718 477.7 714.2 476.2 710.9 474.4 C 707.5 472.7 705.1 471.1 701.8 468.2 C 698.4 465.3 692.4 458.7 690.5 456.8 C 688.4 458.9 681.2 466.5 677.9 469.4 C 675.3 471.6 673.7 472.4 670.6 473.9 C 667.4 475.4 663 477.6 659.1 478.7 C 655.1 479.8 650.8 480.3 646.9 480.3 C 643 480.3 639.9 480.1 635.6 479 C 631.3 477.8 624.4 474.9 621.1 473.2 C 618.5 471.9 617.4 470.9 615.4 468.9 C 612.6 466.1 606.1 458.7 604.2 456.7 C 603.7 457 602.3 457.5 601.3 458.4 C 599.1 460.5 593.8 466.8 590.9 469.4 C 588.3 471.6 586.7 472.4 583.6 473.9 C 580.4 475.4 576 477.6 572.1 478.7 C 568.1 479.8 563.8 480.2 559.9 480.3 C 556 480.3 552.9 480.1 548.5 479 C 544.2 477.9 537.1 475.1 533.7 473.5 C 531.1 472.3 529.9 471.3 527.9 469.3 C 525.4 466.9 521 461 518.9 459 C 517.7 457.8 515.8 457.3 515.2 457 C 514.9 457.2 513.8 457.5 513.3 458.3 C 512.3 459.7 511 463.1 509.2 465.2 C 507.4 467.3 505.5 468.9 502.6 470.6 C 499 472.7 491.7 476.4 487.4 478 C 483.4 479.5 481 479.9 476.9 480.2 C 472.9 480.4 467.4 480.2 463.2 479.4 C 459 478.6 455.7 477.5 451.8 475.4 C 447.9 473.3 443.2 469.9 439.7 466.8 C 436.2 463.7 432.1 458.5 430.5 456.8 C 429.2 458.2 425.6 462.7 422.6 465.5 C 419.7 468.2 416.5 471 412.7 473.2 C 408.8 475.4 403.4 477.5 399.5 478.7 C 395.6 479.9 392.8 480.1 389.4 480.2 C 385.9 480.3 382.9 480.3 378.7 479.2 C 374.6 478.2 368.4 476.1 364.3 474 C 360.2 471.9 357.1 469.4 354.3 466.7 C 351.5 464 348.4 459.2 347.2 457.7 C 346.8 457.9 345.6 458.1 344.8 458.8 C 343.2 460.3 340.4 464.1 337.6 466.5 C 334.8 468.8 331.6 471 328 473 C 324.4 475 319.1 477 316.1 478.2 C 313.6 479.1 312.4 479.5 309.8 479.8 C 306.8 480.1 301.7 480.3 298.3 480.1 C 295 480 293.1 480 289.9 479.1 C 286.4 478 281.4 475.8 277.6 473.9 C 273.9 472 269 468.7 267.2 467.7 C 267 470 266 477.1 266 482 C 266 486.9 267 491 267 497 C 267 503.2 266 512.3 266 519 C 266 525.7 267 532.3 267 537 C 267 541 266 543 266 547 C 266 552 266.9 562.7 266.9 567 C 266.9 569.4 266 570.6 266 573 C 265.9 610.8 266 757.2 266 794 C 267 794.2 269.6 795 272 795 C 336.8 795.2 591.2 795 655 795 C 655.2 794.2 656 792 656 790 C 656.2 740 656 544.2 656 495 C 656.8 494.8 659 494 661 494 C 691.2 493.8 807.7 494 837 494 C 837.2 494.8 838 497 838 499 C 838.2 549 838 744.8 838 794 C 840.1 794.2 847.1 795.3 850.7 795.4 C 854.2 795.5 858 794.9 859.5 794.8 C 859.6 794.4 860.4 793.5 860.4 792.6 C 860.4 738.2 859.9 576.3 859.7 468.1 C 859.4 467.7 859 467.1 858.8 466.9 C 858.6 467 857.8 466.8 857.2 467.2 C 855 468.4 849.9 472.2 845.7 474.2 C 841.5 476.2 835.7 478.4 832 479.3 C 828.7 480.2 826.6 480.1 823.4 480.1 C 820.1 480.1 816 480 812.7 479.5 C 809.3 478.9 806.8 478.3 803.2 476.7 C 799.5 475.1 793.7 472.1 790.6 470.1 C 787.8 468.3 786.3 466.9 784.4 464.8 C 782.5 462.7 780.5 459 779.3 457.5 C 778.5 456.7 777.4 456.3 777 456 Z M 632 494 C 632.2 495.2 633 498.2 633 501 C 633.2 534.4 633 662 633 694.2 C 632.2 694.5 630.5 695.5 628.7 695.8 C 625.7 696.3 618.6 697 615 697 C 611.8 697 610.2 696.2 607 696 C 603.1 695.8 597.9 695.9 591.8 695.9 C 583.5 695.9 564 695.8 557 696 C 554.2 696.1 552.7 697 550 697 C 547.3 697 544.6 696 541 696 C 536.7 696 527.8 697 524 697 C 521.6 697 520 696 518 696 C 516 696 514 697 512 697 C 510 697 508.4 696.1 506 696 C 499.2 695.8 480.8 695.8 471.2 696 C 462.2 696.1 454.9 696.9 448.7 697.1 C 442.8 697.3 437.4 697.2 434 697 C 431.6 696.9 430.1 696.1 428.1 696.1 C 426.1 696.1 424.5 697 422 697 C 411.8 697 379.8 696.3 367.1 696.3 C 358.6 696.3 353.8 697 345.9 697 C 338.1 696.9 327.8 696 320 696 C 312.2 696 303.7 697 299.4 697 C 297.3 697 295.4 696.9 294.3 696.2 C 293.3 695.6 293 694.4 293 693 C 292.8 678.1 293.1 622.3 293 607 C 293 604.5 292.1 602.9 292.1 600.9 C 292.1 598.9 292.9 597.4 293 595 C 293.2 587.6 293.2 565.1 293.1 556.6 C 293 551.6 292 549.1 292 544 C 292 537.7 293 525.1 293 519 C 293 514.5 292.1 511.7 292.1 507.7 C 292.1 503.7 292.7 497.3 293 495 C 293.1 494.4 293.7 494.3 294 494 C 406.7 494 575.7 494 632 494 Z M 300 502 C 299.9 503.1 299.6 505.9 299.6 508.5 C 299.6 535.8 300.1 638.4 300 666 C 300 669.2 299 671.7 299 674 C 299 676.3 300 678.3 300 680 C 300 681.6 298.9 682.8 299 684 C 299.1 685.2 300.2 686.8 300.4 687.3 C 305.2 687.6 319.8 688.9 329.6 689 C 339.3 689.1 351.9 688 359 688 C 364.2 688 366.8 688.9 372 689 C 390.6 689.2 431.1 689.1 470.5 689.1 C 511.9 689.1 594.6 689.1 620.2 689 C 621.7 689 623 688.8 623.9 688.6 C 624.6 688.4 625 687.8 625.5 687.4 C 625.7 625.6 625.9 532.9 626 502 C 625 501.8 622.4 501 620 501 C 565.9 500.9 354.7 501.2 301.4 501.4 C 300.8 501.4 300.2 501.9 300 502 Z M 664 501 L 664 794 C 664.8 794.2 667 795 669 795 C 682.5 795.2 718.4 795.5 745 795.4 C 771.6 795.3 814.6 794.6 828.5 794.4 C 828.8 793.5 830 791.2 830 789 C 830.2 740.3 830 549.8 830 502 C 829.2 501.8 827 501 825 501 C 797.3 500.8 690.8 501 664 501 Z M 315 512 L 612 512 C 612.2 513.2 612.9 516.3 613 519.2 C 613.2 523.7 613.1 530.8 613.1 538.6 C 613 564.6 612.6 652.6 612.5 675.4 C 612.1 675.6 611.3 676.5 610.2 676.7 C 609.1 677 607.5 677 605.7 677 C 556.5 677 363.3 677 314.8 677 C 314.6 676.3 313.6 674.7 313.3 673 C 313 670.3 312.7 665.5 312.6 660.5 C 312.6 648.9 313.1 613.8 313 603 C 313 600.2 312 598.2 312 596 C 312 593.8 312.9 592.4 313 590 C 313.2 584.9 313.2 571.8 313.1 565.6 C 312.9 560.5 312.1 556.4 312.1 553 C 312.1 549.8 313 547.5 313 545 C 313 542.5 312.1 540.9 312.1 538.1 C 312.1 534.9 313 528.9 313 526 C 313 523.8 311.7 522.7 312.1 520.6 C 312.4 518.2 314.5 513.4 315 512 Z M 320 519 C 319.8 520.3 319 523.8 319 527 C 318.8 548.4 318.9 624.1 318.9 647.3 C 318.9 654.8 318.8 662.3 319 666 C 319.2 667.5 320.3 668.8 320.6 669.4 L 385 670 C 385.2 669 386 666.4 386 664 C 386 661 385.1 654.9 385.1 652.1 C 385.1 650 386 649.1 386 647 C 386.2 639.5 385.8 614.4 386 607 C 386 605.3 386.6 603.6 387.2 602.8 C 387.7 602 388.4 602 389.4 602 C 390.7 602 392.7 603 395 603 C 397.3 603 399.8 602 403 602 C 406.8 602 415.3 603 418.1 602.8 C 419 602.8 419.3 601.9 419.5 601 C 420 599.4 420.3 595 421 593.4 C 421.4 592.2 422.6 592.1 423.4 591.4 C 433.6 591.6 449 591.8 454.1 591.9 C 454.3 591.3 455.6 589.9 455.7 588.3 C 455.8 585.1 455 576 455.1 572.6 C 455.2 570.5 456.3 568.3 456.6 567.5 C 463.7 567.3 492.1 566.7 499.6 566.6 C 500.3 566.6 501 566.8 501.4 567.1 C 501.9 567.5 502.2 568.1 502.3 568.8 C 502.5 571.3 502.5 579.4 502.7 582 C 502.8 583.2 503.5 584.4 503.6 584.8 C 509.6 584.9 533.2 585.1 539.6 585.4 C 540.4 585.4 540.9 585.9 541.5 586.4 C 542 586.9 542.5 587.6 542.6 588.5 C 542.9 590.9 542.6 597.9 543 600.4 C 543.1 601.7 544.3 602.9 544.6 603.4 C 546.5 603.2 551.6 602.2 556 602 C 560.4 601.8 567.5 602.1 571.1 602.3 C 573.8 602.5 576.7 603.2 577.8 603.4 C 577.9 614.2 578.3 646.6 578.5 668.3 C 578.9 668.7 579.1 669.2 579.7 669.5 C 580.5 669.8 581.7 669.9 583 670 C 586.5 670.1 596.7 670.5 600.6 670.4 C 602.8 670.3 605.1 669.5 606 669.3 L 606 520 C 605.2 519.8 603 519 601 519 C 553.3 518.8 366.8 519 320 519 Z M 683 519 C 703.7 519 786.1 518.8 807.5 519 C 808.9 519 810.1 518.8 811 520 C 811.9 521.2 813 523.5 813 526 C 813.3 546.5 813 604 813 643 C 811.7 644.3 810.3 645.7 809 647 C 768.7 647 709.1 647.2 688 647 C 685.7 647 683.7 646.7 682.5 645.6 C 681.3 644.5 681 642.7 681 640.6 C 680.7 622.7 680.9 557.5 680.9 538 C 680.9 532.2 680.7 526.7 681 523.5 C 681.3 521.5 682.7 519.7 683 519 Z M 689 526 C 688.8 526.8 688 529 688 531 C 687.8 549.7 688 620.2 688 638 C 688.8 638.2 691 639 693 639 C 712.5 639.2 786.3 639 805 639 C 805.2 637.8 805.9 634.7 806 631.8 C 806.2 622.2 806.1 598 806.2 581.4 C 806.2 564.8 806.2 541.2 806 532 C 805.9 529.6 805.2 527 805 526 Z M 373.4 529.4 C 374.3 529 374.9 529 375.8 529.2 C 376.7 529.4 378.2 530.2 378.8 530.8 C 379.5 531.4 379.6 532.2 379.7 533 C 379.8 533.7 379.8 534.5 379.2 535.1 C 372.4 542.3 345.7 568.9 338.5 575.9 C 337.8 576.6 337 576.8 336.2 576.8 C 335.4 576.8 334.4 576.7 333.7 576 C 333 575.2 332 573.8 332.1 572.4 C 332.1 571 332.6 569.2 333.9 567.7 C 340.3 560.9 363.5 537.9 370.1 531.5 C 371.2 530.4 372.5 529.8 373.4 529.4 Z M 698.2 572.2 C 698 571.5 697.2 569.5 697.1 568.4 C 697.1 567.3 697.1 566.5 697.9 565.7 C 702.7 560.6 720.8 542.5 726.1 537.5 C 727.2 536.4 728.6 535.9 729.5 535.6 C 730.2 535.3 730.8 535.4 731.4 535.7 C 732 536 732.8 536.6 733.1 537.3 C 733.5 537.9 733.6 539 733.5 539.8 C 733.4 540.5 733.3 541.1 732.7 541.7 C 727.7 546.9 708.6 566 703.2 571.2 C 702.4 571.9 701.6 572.2 700.8 572.4 C 700 572.6 698.6 572.2 698.2 572.2 Z M 388.5 542.5 C 390.1 542.5 392.1 542.2 393.2 542.4 C 394.2 542.6 394.7 543.2 395.2 543.9 C 395.6 544.7 396 545.8 395.7 546.9 C 395.5 548 394.7 549.3 393.5 550.5 C 386.3 557.9 359.5 584.5 352.1 591.6 C 351.3 592.4 350.4 592.8 349.5 592.8 C 348.6 592.8 347.4 592.6 346.6 591.8 C 345.9 591 345.1 589.2 345 588 C 344.9 586.8 345.1 585.6 346 584.6 C 353.3 577 374.3 556.5 388.5 542.5 Z M 708.2 586.2 C 708 585.6 707 583.8 707.2 582.5 C 707.3 581.3 707.8 579.9 709 578.6 C 714 573.3 731.6 555.7 737.1 550.4 C 739 548.5 741.2 547.2 742.5 546.5 C 743.5 546 744.4 546 745.2 546.2 C 746.1 546.3 747.2 546.7 747.7 547.3 C 748.1 547.9 748.1 549 748 549.8 C 747.9 550.6 747.8 551.6 747 552.3 C 741 558.4 723.8 574.9 712.1 586.2 C 710.8 586.2 708.8 586.2 708.2 586.2 Z M 462 670 C 464.2 670.2 469.8 671 475 671 C 480.6 671 492.3 670.5 496 670 C 496.9 669.9 496.9 668.8 497.4 668.2 C 497.3 637.1 497.1 590.5 497 575 C 493.1 574.6 479.3 573.1 473.6 572.8 C 469.4 572.6 465 572.6 463 573 C 462.1 573.2 461.8 574 461.8 575 C 461.6 591.1 462 654.2 462 670 Z M 504 670 L 535 670 C 535.2 669.2 536 667 536 665 C 536.2 652.2 536 605 536 593 C 535.4 592.8 533.9 592.2 532.4 592 C 529.8 591.8 525.3 591.6 520.6 591.6 C 515.9 591.6 507.1 591.5 504 592 C 502.8 592.2 502.5 593.2 502.3 594.4 C 502.1 595.8 503 597.8 503 600 C 503.1 611.6 502.8 652.3 503 664 C 503 666.4 503.8 669 504 670 Z M 426.1 669.1 C 426.5 669.3 427.4 670.1 428.4 670.4 C 429.9 670.7 432.4 671 435.1 670.9 C 439.5 670.9 451.5 670.5 455 670 C 455.9 669.9 456.2 668.9 456.2 668 C 456.4 656.2 456 610.5 456 599 C 452.9 598.7 442.1 597.2 437.4 597 C 433.6 596.9 429.8 597.6 428 598 C 427.2 598.2 426.8 598.7 426.4 599.4 C 426 600.1 425.6 601.1 425.6 602.2 C 425.7 609.7 426.9 635.6 427 644 C 427 647.4 426 649.8 426 652.4 C 426 655.1 427 657.2 427 660 C 427 662.8 426.3 667.5 426.1 669.1 Z M 392 669 C 392.7 669.2 394.4 669.9 396 670 C 400.6 670.1 415.5 669.9 419.4 669.9 C 419.5 669.6 420.1 668.9 420.1 668.1 C 420.2 658.1 420 619.7 420 610 C 419.3 609.8 417.6 609.1 416 609 C 411.5 608.8 397 608.7 393 609 C 392.1 609.1 391.9 610 391.9 610.9 C 391.7 620.9 392 659.3 392 669 Z M 571.3 670.8 C 571.5 670.3 572.2 669.3 572.5 668.2 C 572.7 666.8 573 664.5 573 662 C 572.9 654.5 572 631.6 572 623 C 572 618 573 612.9 572.9 610.6 C 572.8 609.9 572.2 609.6 571.5 609.4 C 570.9 609.1 570 609 569 609 C 564.4 608.9 548.4 608.7 544 609 C 543.1 609.1 542.9 610 542.9 610.9 C 542.7 619.6 542.8 651.4 542.9 661.1 C 543 664.5 543.4 667.7 543.8 669.4 C 544.1 670.4 544.7 671.2 545.8 671.3 C 547.2 671.4 549.5 670 552 670 C 556.2 669.9 568.1 670.6 571.3 670.8 Z M 181.4 640.4 C 185.1 639.9 191.6 639.9 195.1 640.7 C 198.3 641.4 199.6 642.7 202.2 644.8 C 204.7 647 207.3 651.9 210.5 653.5 C 213.7 655.1 218 653.6 221.2 654.6 C 224.3 655.6 227.4 657.8 229.5 659.5 C 231.6 661.3 232.7 662.5 233.8 665.2 C 235 668.1 234.4 673.7 236.8 677.2 C 239.2 680.7 245.9 683.9 248.2 686.3 C 250 688.1 250.2 689.5 251.1 691.9 C 252 694.2 253.2 697.8 253.6 700.2 C 254.1 702.5 254.1 703.7 253.9 706 C 253.6 708.5 252.6 713 251.9 715.2 C 251.3 717 250.7 717.8 249.6 719.3 C 247.8 721.6 243 726.7 241.1 729.3 C 239.8 731.1 239.1 732.2 238.4 734.4 C 234.7 746.2 222.4 788.6 218.9 799.9 C 218.6 801 218.1 801.5 217.2 802.2 C 216.1 803 214.5 804.6 212.3 804.8 C 203.3 805.2 172.4 805.3 163 805 C 160.1 804.9 158.3 803.7 156 803 C 149.3 780 139.6 746.2 135.9 734.1 C 135.4 732.5 134.9 731.8 133.9 730.4 C 132.5 728.4 129 725.6 127 722 C 125 718.4 122.8 712.7 122 708.9 C 121.2 705.1 121.7 702.6 122.2 699.3 C 122.8 696 124.1 692 125.3 689.3 C 126.5 686.7 127.2 685.3 129.3 683.3 C 131.5 681.2 136.5 679.5 138.5 676.5 C 140.5 673.5 140.3 667.7 141.1 665.1 C 141.7 663.3 142.3 662.4 143.5 661 C 144.7 659.7 146.7 658.1 148.2 657 C 149.7 655.9 150.7 655.1 152.6 654.7 C 155.3 654.1 161.1 655.3 164.5 653.5 C 167.9 651.7 170.3 645.9 173.1 643.8 C 176 641.6 177.9 640.9 181.4 640.4 Z M 170.2 663.6 C 168.2 663.4 161 662.2 158.3 662.1 C 156.5 662 155.1 662.6 154 663.1 C 152.8 663.6 152 664.1 151.2 665.2 C 150.1 666.8 148.2 669.6 147.4 672.4 C 146.6 675.2 147.9 679.6 146.2 682.2 C 144.5 684.8 139.6 686.1 137.3 688.1 C 135 690.1 133.4 691.2 132.4 694.2 C 131.2 697.5 130.5 704.7 130.6 708.2 C 130.6 711.2 131.2 712.7 132.7 715.3 C 134.4 718.5 139.2 724.7 141.2 727.2 C 142.3 728.5 142.8 729.7 144.5 729.9 C 148.7 730.3 161.4 730.1 166 730 C 168.4 729.9 170.1 729.1 171.9 729.1 C 173.7 729.1 174.9 729.9 177 730 C 181.3 730.2 192.4 730.2 197.7 730.1 C 202.3 729.9 204.5 729 209 729 C 213.8 729 223.1 730 226.8 730 C 228.5 730 229.6 730.1 231 729 C 233.1 727.4 237.2 723.3 239.4 720.3 C 241.6 717.3 243.3 714.4 244.2 711.1 C 245.1 707.9 245.3 704.2 244.9 700.9 C 244.5 697.7 242.8 693.7 241.8 691.6 C 241 690 240.1 689.4 238.6 688.4 C 236.1 686.8 229.1 683.4 227 682 C 226.2 681.5 226.3 680.7 226.3 679.8 C 226.3 678 227.7 673.8 227.1 671.4 C 226.6 669 225 666.8 223 665.3 C 220.9 663.8 217.7 662.8 214.8 662.6 C 211.9 662.4 207.7 664.5 205.7 664.3 C 204.2 664.2 203.8 663 202.8 661.7 C 201.2 659.4 198 652.7 195.9 650.5 C 194.3 648.8 192.2 649 190.3 648.6 C 188.4 648.3 186.2 648.2 184.4 648.4 C 182.6 648.6 180.8 649.3 179.4 649.9 C 178.1 650.6 177.2 651 176.3 652.3 C 174.8 654.6 171.2 661.8 170.2 663.6 Z M 684.4 652.4 C 686.1 652.2 687.7 652.1 689.7 652.7 C 691.9 653.3 695.6 654.7 697.7 656.1 C 699.7 657.5 700.8 659 701.9 660.9 C 702.9 662.7 703.7 665.1 704 667 C 704.2 668.9 704 670.5 703.4 672.3 C 702.8 674.1 702 676.3 700.6 678.1 C 699.2 679.8 696.8 681.5 695.1 682.6 C 693.4 683.7 692.2 684.4 690.5 684.7 C 688.8 685 686.8 684.9 684.8 684.5 C 682.8 684.2 680.5 683.8 678.5 682.6 C 676.6 681.4 674.4 679 673.1 677.4 C 672 675.8 671.5 674.7 671.2 672.8 C 670.9 670.9 670.8 667.9 671.1 665.8 C 671.4 663.6 671.6 661.9 673.1 659.9 C 674.5 657.9 677.9 655 679.8 653.8 C 681.4 652.7 682.7 652.6 684.4 652.4 Z M 685 658 C 683.2 659.2 678.7 662.6 677.4 664.7 C 676.1 666.9 676.6 669.2 677 671 C 677.4 672.8 678.9 674.4 679.9 675.5 C 680.9 676.7 681.6 677.6 683 678 C 684.4 678.4 686.3 678.4 688.2 678.2 C 690 677.9 692.6 677.1 694 676.6 C 695 676.2 695.6 675.5 696.1 674.8 C 696.6 674.1 697.1 673.5 697.2 672.4 C 697.3 670.5 697.1 665.3 696.8 663.4 C 696.5 662.2 695.8 661.8 695 661 C 694.1 660.2 692.6 659.3 691.5 658.8 C 690.3 658.2 689.1 657.9 688 657.7 C 686.9 657.6 686 657.3 685 658 Z M 683 689 L 811.4 689.5 C 811.6 689.9 812.5 690.7 812.7 691.8 C 813 692.9 813.1 694.5 813 696.3 C 812.9 700.5 812 712.4 812 717 C 812 719.8 813 721.2 813 724 C 813.2 733.4 813.2 764.4 813 773.5 C 812.9 775.6 812.2 777.5 811.6 778.6 C 811.1 779.5 810.4 779.9 809.3 780 C 804.8 780.2 794.3 780.2 784.3 780.2 C 764.1 780.2 704.9 780.2 688 780 C 686 780 684.1 779.4 683 779 C 682.2 778.7 682 778.1 681.7 777.3 C 681.3 776.5 681 775.4 681 774 C 680.9 764 680.9 730.4 680.9 717 C 680.9 707.8 680.6 698.7 681 694 C 681.2 691.9 682.7 689.8 683 689 Z M 689 696 C 688.8 697.1 688.1 699.8 688 702.3 C 687.8 708.8 687.8 724.2 687.8 735 C 687.8 745.9 687.8 761.3 688 767.6 C 688.1 769.8 688.8 772.1 689 773 C 707.9 773 782.7 773.3 802.2 773 C 803.9 773 805.4 771.3 806 771 C 805.8 765.8 805 746.7 805 740 C 805 736.4 806 734.6 806 731 C 806.1 726.5 805.3 718.5 805.3 713.1 C 805.3 707.7 806.2 701.7 806.2 698.8 C 806.2 697.6 805.4 696.5 805.3 696 Z M 457 780.2 C 456.2 780.5 454.3 781.7 452.3 782 C 449.6 782.5 445.5 783 441 783 C 415 783.1 344.4 782.9 296 782.8 C 295 781.5 294 780.3 293 779 C 292.9 756.8 292.8 734.6 292.7 712.4 C 293.1 711.9 293.3 711.3 294 711 C 294.8 710.6 296 710.3 297.4 710.2 C 300.6 710 307 709.5 313.4 709.4 C 322.8 709.2 346.2 708.9 354 709 C 356.4 709 357.6 709.9 360 709.9 C 362.7 709.9 367 709 370 709 C 373 709 374.8 710 378 710 C 392.2 710.2 429.5 710.2 455.3 710.3 C 455.7 710.9 456.3 711.4 456.5 712.2 C 456.8 713.3 457 714.8 457 716.6 C 457.1 727.9 457 769.6 457 780.2 Z M 471 709 C 472.2 709 474 710 476 710 C 502.5 710.2 578.7 710.2 630.1 710.3 C 630.5 710.8 631.2 711 631.4 711.8 C 631.7 712.7 632 714.2 632 715.9 C 632 727.3 631.9 758.6 631.8 780 C 630.9 780.7 630.3 781.6 629 782.1 C 627.5 782.6 625.4 783 623 783 C 596.5 783.1 521 782.9 470 782.8 C 469 781.5 468 780.3 467 779 C 467 762.5 466.8 740.6 467 729.5 C 467.1 722.8 467.8 715.9 468.1 712.7 C 468.2 711.6 468.5 710.9 469 710.2 C 469.4 709.6 470 709 471 709 Z M 301.2 716.8 C 301 717.5 300 719 300 720.6 C 299.8 730 299.7 763.9 299.9 773 C 299.9 774.1 300.4 774.9 301.5 775.2 C 303.1 775.7 306.6 776 310 776 C 325.9 776 381.2 775 397 775 C 400.2 775 401.9 776 405 776 C 408.2 776 411.5 775.1 415.9 775.1 C 421.1 775.1 430.4 776.1 436 776 C 441.4 775.9 447.2 774.8 449.5 774.6 L 450 717 C 425.6 716.9 328.5 716.5 303.7 716.5 C 302.7 716.5 301.6 716.8 301.2 716.8 Z M 474 717 C 474 726.3 473.7 762.9 474 772.6 C 474 773.8 474.3 774.7 475.4 775.2 C 476.6 775.7 479 775.9 481.4 775.9 C 486.8 775.9 499.9 775 508 775 C 516.1 775 525.2 776 530 776 C 532.9 776 534.2 775.3 537.1 775.3 C 552.3 775.3 606.6 776 621 776 C 622 776 622.8 775.8 623.4 775.5 C 624 775.2 624.1 774.7 624.4 774.2 C 624.6 758.4 625.1 736.3 625 726.8 C 625 722.9 624.2 718.6 624 717 C 601.3 716.9 512.8 716.6 487.8 716.6 C 482.3 716.6 476.3 716.9 474 717 Z M 146 740 L 162 795 C 164.7 795.2 171.6 796 178 796 C 185.3 796 200.6 795.1 205.9 795.1 C 207.5 795.1 208.8 796 209.7 796 C 210.5 796 210.9 795.4 211.4 795.2 C 216.5 778.2 224.1 753.7 226.7 744.4 C 227.3 742.4 227.1 740 227.2 739.2 C 226.3 739 224.1 738 222 738 C 208.9 737.9 161.1 738.1 148.4 738.4 C 147.2 738.4 146.4 739.7 146 740 Z" fill="#26292E" fill-rule="evenodd"/>
</svg>
